<?xml version="1.0" encoding="utf-8" standalone="no"?>
<!DOCTYPE svg PUBLIC "-//W3C//DTD SVG 1.1//EN"
  "http://www.w3.org/Graphics/SVG/1.1/DTD/svg11.dtd">
<svg xmlns:xlink="http://www.w3.org/1999/xlink" width="460.8pt" height="345.6pt" viewBox="0 0 460.8 345.6" xmlns="http://www.w3.org/2000/svg" version="1.1">
 <metadata>
  <rdf:RDF xmlns:dc="http://purl.org/dc/elements/1.1/" xmlns:cc="http://creativecommons.org/ns#" xmlns:rdf="http://www.w3.org/1999/02/22-rdf-syntax-ns#">
   <cc:Work>
    <dc:type rdf:resource="http://purl.org/dc/dcmitype/StillImage"/>
    <dc:date>2025-05-27T18:28:27.157296</dc:date>
    <dc:format>image/svg+xml</dc:format>
    <dc:creator>
     <cc:Agent>
      <dc:title>Matplotlib v3.10.1, https://matplotlib.org/</dc:title>
     </cc:Agent>
    </dc:creator>
   </cc:Work>
  </rdf:RDF>
 </metadata>
 <defs>
  <style type="text/css">*{stroke-linejoin: round; stroke-linecap: butt}</style>
 </defs>
 <g id="figure_1">
  <g id="patch_1">
   <path d="M 0 345.6 
L 460.8 345.6 
L 460.8 0 
L 0 0 
z
" style="fill: #ffffff"/>
  </g>
  <g id="axes_1">
   <g id="patch_2">
    <path d="M 57.6 307.584 
L 414.72 307.584 
L 414.72 41.472 
L 57.6 41.472 
z
" style="fill: #ffffff"/>
   </g>
   <g id="patch_3">
    <path d="M 73.832727 307.584 
L 77.40036 307.584 
L 77.40036 305.22459 
L 73.832727 305.22459 
z
" clip-path="url(#pa9960e04d0)" style="fill: #1f77b4; fill-opacity: 0.5; stroke: #000000; stroke-width: 0.356763; stroke-linejoin: miter"/>
   </g>
   <g id="patch_4">
    <path d="M 77.40036 307.584 
L 80.967992 307.584 
L 80.967992 305.22459 
L 77.40036 305.22459 
z
" clip-path="url(#pa9960e04d0)" style="fill: #1f77b4; fill-opacity: 0.5; stroke: #000000; stroke-width: 0.356763; stroke-linejoin: miter"/>
   </g>
   <g id="patch_5">
    <path d="M 80.967992 307.584 
L 84.535624 307.584 
L 84.535624 305.22459 
L 80.967992 305.22459 
z
" clip-path="url(#pa9960e04d0)" style="fill: #1f77b4; fill-opacity: 0.5; stroke: #000000; stroke-width: 0.356763; stroke-linejoin: miter"/>
   </g>
   <g id="patch_6">
    <path d="M 84.535624 307.584 
L 88.103257 307.584 
L 88.103257 305.421207 
L 84.535624 305.421207 
z
" clip-path="url(#pa9960e04d0)" style="fill: #1f77b4; fill-opacity: 0.5; stroke: #000000; stroke-width: 0.356763; stroke-linejoin: miter"/>
   </g>
   <g id="patch_7">
    <path d="M 88.103257 307.584 
L 91.670889 307.584 
L 91.670889 304.241502 
L 88.103257 304.241502 
z
" clip-path="url(#pa9960e04d0)" style="fill: #1f77b4; fill-opacity: 0.5; stroke: #000000; stroke-width: 0.356763; stroke-linejoin: miter"/>
   </g>
   <g id="patch_8">
    <path d="M 91.670889 307.584 
L 95.238521 307.584 
L 95.238521 304.634737 
L 91.670889 304.634737 
z
" clip-path="url(#pa9960e04d0)" style="fill: #1f77b4; fill-opacity: 0.5; stroke: #000000; stroke-width: 0.356763; stroke-linejoin: miter"/>
   </g>
   <g id="patch_9">
    <path d="M 95.238521 307.584 
L 98.806154 307.584 
L 98.806154 304.438119 
L 95.238521 304.438119 
z
" clip-path="url(#pa9960e04d0)" style="fill: #1f77b4; fill-opacity: 0.5; stroke: #000000; stroke-width: 0.356763; stroke-linejoin: miter"/>
   </g>
   <g id="patch_10">
    <path d="M 98.806154 307.584 
L 102.373786 307.584 
L 102.373786 303.455032 
L 98.806154 303.455032 
z
" clip-path="url(#pa9960e04d0)" style="fill: #1f77b4; fill-opacity: 0.5; stroke: #000000; stroke-width: 0.356763; stroke-linejoin: miter"/>
   </g>
   <g id="patch_11">
    <path d="M 102.373786 307.584 
L 105.941419 307.584 
L 105.941419 303.848267 
L 102.373786 303.848267 
z
" clip-path="url(#pa9960e04d0)" style="fill: #1f77b4; fill-opacity: 0.5; stroke: #000000; stroke-width: 0.356763; stroke-linejoin: miter"/>
   </g>
   <g id="patch_12">
    <path d="M 105.941419 307.584 
L 109.509051 307.584 
L 109.509051 305.22459 
L 105.941419 305.22459 
z
" clip-path="url(#pa9960e04d0)" style="fill: #1f77b4; fill-opacity: 0.5; stroke: #000000; stroke-width: 0.356763; stroke-linejoin: miter"/>
   </g>
   <g id="patch_13">
    <path d="M 109.509051 307.584 
L 113.076683 307.584 
L 113.076683 303.455032 
L 109.509051 303.455032 
z
" clip-path="url(#pa9960e04d0)" style="fill: #1f77b4; fill-opacity: 0.5; stroke: #000000; stroke-width: 0.356763; stroke-linejoin: miter"/>
   </g>
   <g id="patch_14">
    <path d="M 113.076683 307.584 
L 116.644316 307.584 
L 116.644316 300.899004 
L 113.076683 300.899004 
z
" clip-path="url(#pa9960e04d0)" style="fill: #1f77b4; fill-opacity: 0.5; stroke: #000000; stroke-width: 0.356763; stroke-linejoin: miter"/>
   </g>
   <g id="patch_15">
    <path d="M 116.644316 307.584 
L 120.211948 307.584 
L 120.211948 305.22459 
L 116.644316 305.22459 
z
" clip-path="url(#pa9960e04d0)" style="fill: #1f77b4; fill-opacity: 0.5; stroke: #000000; stroke-width: 0.356763; stroke-linejoin: miter"/>
   </g>
   <g id="patch_16">
    <path d="M 120.211948 307.584 
L 123.77958 307.584 
L 123.77958 304.044884 
L 120.211948 304.044884 
z
" clip-path="url(#pa9960e04d0)" style="fill: #1f77b4; fill-opacity: 0.5; stroke: #000000; stroke-width: 0.356763; stroke-linejoin: miter"/>
   </g>
   <g id="patch_17">
    <path d="M 123.77958 307.584 
L 127.347213 307.584 
L 127.347213 302.275327 
L 123.77958 302.275327 
z
" clip-path="url(#pa9960e04d0)" style="fill: #1f77b4; fill-opacity: 0.5; stroke: #000000; stroke-width: 0.356763; stroke-linejoin: miter"/>
   </g>
   <g id="patch_18">
    <path d="M 127.347213 307.584 
L 130.914845 307.584 
L 130.914845 297.556506 
L 127.347213 297.556506 
z
" clip-path="url(#pa9960e04d0)" style="fill: #1f77b4; fill-opacity: 0.5; stroke: #000000; stroke-width: 0.356763; stroke-linejoin: miter"/>
   </g>
   <g id="patch_19">
    <path d="M 130.914845 307.584 
L 134.482478 307.584 
L 134.482478 296.770036 
L 130.914845 296.770036 
z
" clip-path="url(#pa9960e04d0)" style="fill: #1f77b4; fill-opacity: 0.5; stroke: #000000; stroke-width: 0.356763; stroke-linejoin: miter"/>
   </g>
   <g id="patch_20">
    <path d="M 134.482478 307.584 
L 138.05011 307.584 
L 138.05011 298.342976 
L 134.482478 298.342976 
z
" clip-path="url(#pa9960e04d0)" style="fill: #1f77b4; fill-opacity: 0.5; stroke: #000000; stroke-width: 0.356763; stroke-linejoin: miter"/>
   </g>
   <g id="patch_21">
    <path d="M 138.05011 307.584 
L 141.617742 307.584 
L 141.617742 298.539593 
L 138.05011 298.539593 
z
" clip-path="url(#pa9960e04d0)" style="fill: #1f77b4; fill-opacity: 0.5; stroke: #000000; stroke-width: 0.356763; stroke-linejoin: miter"/>
   </g>
   <g id="patch_22">
    <path d="M 141.617742 307.584 
L 145.185375 307.584 
L 145.185375 297.556506 
L 141.617742 297.556506 
z
" clip-path="url(#pa9960e04d0)" style="fill: #1f77b4; fill-opacity: 0.5; stroke: #000000; stroke-width: 0.356763; stroke-linejoin: miter"/>
   </g>
   <g id="patch_23">
    <path d="M 145.185375 307.584 
L 148.753007 307.584 
L 148.753007 288.315482 
L 145.185375 288.315482 
z
" clip-path="url(#pa9960e04d0)" style="fill: #1f77b4; fill-opacity: 0.5; stroke: #000000; stroke-width: 0.356763; stroke-linejoin: miter"/>
   </g>
   <g id="patch_24">
    <path d="M 148.753007 307.584 
L 152.320639 307.584 
L 152.320639 294.01739 
L 148.753007 294.01739 
z
" clip-path="url(#pa9960e04d0)" style="fill: #1f77b4; fill-opacity: 0.5; stroke: #000000; stroke-width: 0.356763; stroke-linejoin: miter"/>
   </g>
   <g id="patch_25">
    <path d="M 152.320639 307.584 
L 155.888272 307.584 
L 155.888272 286.349306 
L 152.320639 286.349306 
z
" clip-path="url(#pa9960e04d0)" style="fill: #1f77b4; fill-opacity: 0.5; stroke: #000000; stroke-width: 0.356763; stroke-linejoin: miter"/>
   </g>
   <g id="patch_26">
    <path d="M 155.888272 307.584 
L 159.455904 307.584 
L 159.455904 284.186514 
L 155.888272 284.186514 
z
" clip-path="url(#pa9960e04d0)" style="fill: #1f77b4; fill-opacity: 0.5; stroke: #000000; stroke-width: 0.356763; stroke-linejoin: miter"/>
   </g>
   <g id="patch_27">
    <path d="M 159.455904 307.584 
L 163.023536 307.584 
L 163.023536 273.569167 
L 159.455904 273.569167 
z
" clip-path="url(#pa9960e04d0)" style="fill: #1f77b4; fill-opacity: 0.5; stroke: #000000; stroke-width: 0.356763; stroke-linejoin: miter"/>
   </g>
   <g id="patch_28">
    <path d="M 163.023536 307.584 
L 166.591169 307.584 
L 166.591169 279.271075 
L 163.023536 279.271075 
z
" clip-path="url(#pa9960e04d0)" style="fill: #1f77b4; fill-opacity: 0.5; stroke: #000000; stroke-width: 0.356763; stroke-linejoin: miter"/>
   </g>
   <g id="patch_29">
    <path d="M 166.591169 307.584 
L 170.158801 307.584 
L 170.158801 271.996227 
L 166.591169 271.996227 
z
" clip-path="url(#pa9960e04d0)" style="fill: #1f77b4; fill-opacity: 0.5; stroke: #000000; stroke-width: 0.356763; stroke-linejoin: miter"/>
   </g>
   <g id="patch_30">
    <path d="M 170.158801 307.584 
L 173.726434 307.584 
L 173.726434 260.59241 
L 170.158801 260.59241 
z
" clip-path="url(#pa9960e04d0)" style="fill: #1f77b4; fill-opacity: 0.5; stroke: #000000; stroke-width: 0.356763; stroke-linejoin: miter"/>
   </g>
   <g id="patch_31">
    <path d="M 173.726434 307.584 
L 177.294066 307.584 
L 177.294066 263.345055 
L 173.726434 263.345055 
z
" clip-path="url(#pa9960e04d0)" style="fill: #1f77b4; fill-opacity: 0.5; stroke: #000000; stroke-width: 0.356763; stroke-linejoin: miter"/>
   </g>
   <g id="patch_32">
    <path d="M 177.294066 307.584 
L 180.861698 307.584 
L 180.861698 253.120943 
L 177.294066 253.120943 
z
" clip-path="url(#pa9960e04d0)" style="fill: #1f77b4; fill-opacity: 0.5; stroke: #000000; stroke-width: 0.356763; stroke-linejoin: miter"/>
   </g>
   <g id="patch_33">
    <path d="M 180.861698 307.584 
L 184.429331 307.584 
L 184.429331 246.829182 
L 180.861698 246.829182 
z
" clip-path="url(#pa9960e04d0)" style="fill: #1f77b4; fill-opacity: 0.5; stroke: #000000; stroke-width: 0.356763; stroke-linejoin: miter"/>
   </g>
   <g id="patch_34">
    <path d="M 184.429331 307.584 
L 187.996963 307.584 
L 187.996963 236.998306 
L 184.429331 236.998306 
z
" clip-path="url(#pa9960e04d0)" style="fill: #1f77b4; fill-opacity: 0.5; stroke: #000000; stroke-width: 0.356763; stroke-linejoin: miter"/>
   </g>
   <g id="patch_35">
    <path d="M 187.996963 307.584 
L 191.564595 307.584 
L 191.564595 231.493015 
L 187.996963 231.493015 
z
" clip-path="url(#pa9960e04d0)" style="fill: #1f77b4; fill-opacity: 0.5; stroke: #000000; stroke-width: 0.356763; stroke-linejoin: miter"/>
   </g>
   <g id="patch_36">
    <path d="M 191.564595 307.584 
L 195.132228 307.584 
L 195.132228 224.808019 
L 191.564595 224.808019 
z
" clip-path="url(#pa9960e04d0)" style="fill: #1f77b4; fill-opacity: 0.5; stroke: #000000; stroke-width: 0.356763; stroke-linejoin: miter"/>
   </g>
   <g id="patch_37">
    <path d="M 195.132228 307.584 
L 198.69986 307.584 
L 198.69986 219.695963 
L 195.132228 219.695963 
z
" clip-path="url(#pa9960e04d0)" style="fill: #1f77b4; fill-opacity: 0.5; stroke: #000000; stroke-width: 0.356763; stroke-linejoin: miter"/>
   </g>
   <g id="patch_38">
    <path d="M 198.69986 307.584 
L 202.267493 307.584 
L 202.267493 212.617732 
L 198.69986 212.617732 
z
" clip-path="url(#pa9960e04d0)" style="fill: #1f77b4; fill-opacity: 0.5; stroke: #000000; stroke-width: 0.356763; stroke-linejoin: miter"/>
   </g>
   <g id="patch_39">
    <path d="M 202.267493 307.584 
L 205.835125 307.584 
L 205.835125 193.545831 
L 202.267493 193.545831 
z
" clip-path="url(#pa9960e04d0)" style="fill: #1f77b4; fill-opacity: 0.5; stroke: #000000; stroke-width: 0.356763; stroke-linejoin: miter"/>
   </g>
   <g id="patch_40">
    <path d="M 205.835125 307.584 
L 209.402757 307.584 
L 209.402757 194.725536 
L 205.835125 194.725536 
z
" clip-path="url(#pa9960e04d0)" style="fill: #1f77b4; fill-opacity: 0.5; stroke: #000000; stroke-width: 0.356763; stroke-linejoin: miter"/>
   </g>
   <g id="patch_41">
    <path d="M 209.402757 307.584 
L 212.97039 307.584 
L 212.97039 173.884078 
L 209.402757 173.884078 
z
" clip-path="url(#pa9960e04d0)" style="fill: #1f77b4; fill-opacity: 0.5; stroke: #000000; stroke-width: 0.356763; stroke-linejoin: miter"/>
   </g>
   <g id="patch_42">
    <path d="M 212.97039 307.584 
L 216.538022 307.584 
L 216.538022 153.042619 
L 212.97039 153.042619 
z
" clip-path="url(#pa9960e04d0)" style="fill: #1f77b4; fill-opacity: 0.5; stroke: #000000; stroke-width: 0.356763; stroke-linejoin: miter"/>
   </g>
   <g id="patch_43">
    <path d="M 216.538022 307.584 
L 220.105654 307.584 
L 220.105654 178.209663 
L 216.538022 178.209663 
z
" clip-path="url(#pa9960e04d0)" style="fill: #1f77b4; fill-opacity: 0.5; stroke: #000000; stroke-width: 0.356763; stroke-linejoin: miter"/>
   </g>
   <g id="patch_44">
    <path d="M 220.105654 307.584 
L 223.673287 307.584 
L 223.673287 144.784683 
L 220.105654 144.784683 
z
" clip-path="url(#pa9960e04d0)" style="fill: #1f77b4; fill-opacity: 0.5; stroke: #000000; stroke-width: 0.356763; stroke-linejoin: miter"/>
   </g>
   <g id="patch_45">
    <path d="M 223.673287 307.584 
L 227.240919 307.584 
L 227.240919 131.611308 
L 223.673287 131.611308 
z
" clip-path="url(#pa9960e04d0)" style="fill: #1f77b4; fill-opacity: 0.5; stroke: #000000; stroke-width: 0.356763; stroke-linejoin: miter"/>
   </g>
   <g id="patch_46">
    <path d="M 227.240919 307.584 
L 230.808551 307.584 
L 230.808551 142.228655 
L 227.240919 142.228655 
z
" clip-path="url(#pa9960e04d0)" style="fill: #1f77b4; fill-opacity: 0.5; stroke: #000000; stroke-width: 0.356763; stroke-linejoin: miter"/>
   </g>
   <g id="patch_47">
    <path d="M 230.808551 307.584 
L 234.376184 307.584 
L 234.376184 141.442185 
L 230.808551 141.442185 
z
" clip-path="url(#pa9960e04d0)" style="fill: #1f77b4; fill-opacity: 0.5; stroke: #000000; stroke-width: 0.356763; stroke-linejoin: miter"/>
   </g>
   <g id="patch_48">
    <path d="M 234.376184 307.584 
L 237.943816 307.584 
L 237.943816 128.072192 
L 234.376184 128.072192 
z
" clip-path="url(#pa9960e04d0)" style="fill: #1f77b4; fill-opacity: 0.5; stroke: #000000; stroke-width: 0.356763; stroke-linejoin: miter"/>
   </g>
   <g id="patch_49">
    <path d="M 237.943816 307.584 
L 241.511449 307.584 
L 241.511449 109.590144 
L 237.943816 109.590144 
z
" clip-path="url(#pa9960e04d0)" style="fill: #1f77b4; fill-opacity: 0.5; stroke: #000000; stroke-width: 0.356763; stroke-linejoin: miter"/>
   </g>
   <g id="patch_50">
    <path d="M 241.511449 307.584 
L 245.079081 307.584 
L 245.079081 97.006622 
L 241.511449 97.006622 
z
" clip-path="url(#pa9960e04d0)" style="fill: #1f77b4; fill-opacity: 0.5; stroke: #000000; stroke-width: 0.356763; stroke-linejoin: miter"/>
   </g>
   <g id="patch_51">
    <path d="M 245.079081 307.584 
L 248.646713 307.584 
L 248.646713 102.315296 
L 245.079081 102.315296 
z
" clip-path="url(#pa9960e04d0)" style="fill: #1f77b4; fill-opacity: 0.5; stroke: #000000; stroke-width: 0.356763; stroke-linejoin: miter"/>
   </g>
   <g id="patch_52">
    <path d="M 248.646713 307.584 
L 252.214346 307.584 
L 252.214346 94.647212 
L 248.646713 94.647212 
z
" clip-path="url(#pa9960e04d0)" style="fill: #1f77b4; fill-opacity: 0.5; stroke: #000000; stroke-width: 0.356763; stroke-linejoin: miter"/>
   </g>
   <g id="patch_53">
    <path d="M 252.214346 307.584 
L 255.781978 307.584 
L 255.781978 82.456925 
L 252.214346 82.456925 
z
" clip-path="url(#pa9960e04d0)" style="fill: #1f77b4; fill-opacity: 0.5; stroke: #000000; stroke-width: 0.356763; stroke-linejoin: miter"/>
   </g>
   <g id="patch_54">
    <path d="M 255.781978 307.584 
L 259.34961 307.584 
L 259.34961 54.144 
L 255.781978 54.144 
z
" clip-path="url(#pa9960e04d0)" style="fill: #1f77b4; fill-opacity: 0.5; stroke: #000000; stroke-width: 0.356763; stroke-linejoin: miter"/>
   </g>
   <g id="patch_55">
    <path d="M 259.34961 307.584 
L 262.917243 307.584 
L 262.917243 81.867072 
L 259.34961 81.867072 
z
" clip-path="url(#pa9960e04d0)" style="fill: #1f77b4; fill-opacity: 0.5; stroke: #000000; stroke-width: 0.356763; stroke-linejoin: miter"/>
   </g>
   <g id="patch_56">
    <path d="M 262.917243 307.584 
L 266.484875 307.584 
L 266.484875 112.146172 
L 262.917243 112.146172 
z
" clip-path="url(#pa9960e04d0)" style="fill: #1f77b4; fill-opacity: 0.5; stroke: #000000; stroke-width: 0.356763; stroke-linejoin: miter"/>
   </g>
   <g id="patch_57">
    <path d="M 266.484875 307.584 
L 270.052507 307.584 
L 270.052507 87.765598 
L 266.484875 87.765598 
z
" clip-path="url(#pa9960e04d0)" style="fill: #1f77b4; fill-opacity: 0.5; stroke: #000000; stroke-width: 0.356763; stroke-linejoin: miter"/>
   </g>
   <g id="patch_58">
    <path d="M 270.052507 307.584 
L 273.62014 307.584 
L 273.62014 72.036196 
L 270.052507 72.036196 
z
" clip-path="url(#pa9960e04d0)" style="fill: #1f77b4; fill-opacity: 0.5; stroke: #000000; stroke-width: 0.356763; stroke-linejoin: miter"/>
   </g>
   <g id="patch_59">
    <path d="M 273.62014 307.584 
L 277.187772 307.584 
L 277.187772 65.941052 
L 273.62014 65.941052 
z
" clip-path="url(#pa9960e04d0)" style="fill: #1f77b4; fill-opacity: 0.5; stroke: #000000; stroke-width: 0.356763; stroke-linejoin: miter"/>
   </g>
   <g id="patch_60">
    <path d="M 277.187772 307.584 
L 280.755405 307.584 
L 280.755405 113.522495 
L 277.187772 113.522495 
z
" clip-path="url(#pa9960e04d0)" style="fill: #1f77b4; fill-opacity: 0.5; stroke: #000000; stroke-width: 0.356763; stroke-linejoin: miter"/>
   </g>
   <g id="patch_61">
    <path d="M 280.755405 307.584 
L 284.323037 307.584 
L 284.323037 124.926312 
L 280.755405 124.926312 
z
" clip-path="url(#pa9960e04d0)" style="fill: #1f77b4; fill-opacity: 0.5; stroke: #000000; stroke-width: 0.356763; stroke-linejoin: miter"/>
   </g>
   <g id="patch_62">
    <path d="M 284.323037 307.584 
L 287.890669 307.584 
L 287.890669 110.573232 
L 284.323037 110.573232 
z
" clip-path="url(#pa9960e04d0)" style="fill: #1f77b4; fill-opacity: 0.5; stroke: #000000; stroke-width: 0.356763; stroke-linejoin: miter"/>
   </g>
   <g id="patch_63">
    <path d="M 287.890669 307.584 
L 291.458302 307.584 
L 291.458302 130.038368 
L 287.890669 130.038368 
z
" clip-path="url(#pa9960e04d0)" style="fill: #1f77b4; fill-opacity: 0.5; stroke: #000000; stroke-width: 0.356763; stroke-linejoin: miter"/>
   </g>
   <g id="patch_64">
    <path d="M 291.458302 307.584 
L 295.025934 307.584 
L 295.025934 139.279392 
L 291.458302 139.279392 
z
" clip-path="url(#pa9960e04d0)" style="fill: #1f77b4; fill-opacity: 0.5; stroke: #000000; stroke-width: 0.356763; stroke-linejoin: miter"/>
   </g>
   <g id="patch_65">
    <path d="M 295.025934 307.584 
L 298.593566 307.584 
L 298.593566 178.406281 
L 295.025934 178.406281 
z
" clip-path="url(#pa9960e04d0)" style="fill: #1f77b4; fill-opacity: 0.5; stroke: #000000; stroke-width: 0.356763; stroke-linejoin: miter"/>
   </g>
   <g id="patch_66">
    <path d="M 298.593566 307.584 
L 302.161199 307.584 
L 302.161199 178.209663 
L 298.593566 178.209663 
z
" clip-path="url(#pa9960e04d0)" style="fill: #1f77b4; fill-opacity: 0.5; stroke: #000000; stroke-width: 0.356763; stroke-linejoin: miter"/>
   </g>
   <g id="patch_67">
    <path d="M 302.161199 307.584 
L 305.728831 307.584 
L 305.728831 171.32805 
L 302.161199 171.32805 
z
" clip-path="url(#pa9960e04d0)" style="fill: #1f77b4; fill-opacity: 0.5; stroke: #000000; stroke-width: 0.356763; stroke-linejoin: miter"/>
   </g>
   <g id="patch_68">
    <path d="M 305.728831 307.584 
L 309.296464 307.584 
L 309.296464 200.427445 
L 305.728831 200.427445 
z
" clip-path="url(#pa9960e04d0)" style="fill: #1f77b4; fill-opacity: 0.5; stroke: #000000; stroke-width: 0.356763; stroke-linejoin: miter"/>
   </g>
   <g id="patch_69">
    <path d="M 309.296464 307.584 
L 312.864096 307.584 
L 312.864096 223.431696 
L 309.296464 223.431696 
z
" clip-path="url(#pa9960e04d0)" style="fill: #1f77b4; fill-opacity: 0.5; stroke: #000000; stroke-width: 0.356763; stroke-linejoin: miter"/>
   </g>
   <g id="patch_70">
    <path d="M 312.864096 307.584 
L 316.431728 307.584 
L 316.431728 226.380959 
L 312.864096 226.380959 
z
" clip-path="url(#pa9960e04d0)" style="fill: #1f77b4; fill-opacity: 0.5; stroke: #000000; stroke-width: 0.356763; stroke-linejoin: miter"/>
   </g>
   <g id="patch_71">
    <path d="M 316.431728 307.584 
L 319.999361 307.584 
L 319.999361 232.476102 
L 316.431728 232.476102 
z
" clip-path="url(#pa9960e04d0)" style="fill: #1f77b4; fill-opacity: 0.5; stroke: #000000; stroke-width: 0.356763; stroke-linejoin: miter"/>
   </g>
   <g id="patch_72">
    <path d="M 319.999361 307.584 
L 323.566993 307.584 
L 323.566993 255.087119 
L 319.999361 255.087119 
z
" clip-path="url(#pa9960e04d0)" style="fill: #1f77b4; fill-opacity: 0.5; stroke: #000000; stroke-width: 0.356763; stroke-linejoin: miter"/>
   </g>
   <g id="patch_73">
    <path d="M 323.566993 307.584 
L 327.134625 307.584 
L 327.134625 266.687553 
L 323.566993 266.687553 
z
" clip-path="url(#pa9960e04d0)" style="fill: #1f77b4; fill-opacity: 0.5; stroke: #000000; stroke-width: 0.356763; stroke-linejoin: miter"/>
   </g>
   <g id="patch_74">
    <path d="M 327.134625 307.584 
L 330.702258 307.584 
L 330.702258 270.619904 
L 327.134625 270.619904 
z
" clip-path="url(#pa9960e04d0)" style="fill: #1f77b4; fill-opacity: 0.5; stroke: #000000; stroke-width: 0.356763; stroke-linejoin: miter"/>
   </g>
   <g id="patch_75">
    <path d="M 330.702258 307.584 
L 334.26989 307.584 
L 334.26989 275.535342 
L 330.702258 275.535342 
z
" clip-path="url(#pa9960e04d0)" style="fill: #1f77b4; fill-opacity: 0.5; stroke: #000000; stroke-width: 0.356763; stroke-linejoin: miter"/>
   </g>
   <g id="patch_76">
    <path d="M 334.26989 307.584 
L 337.837522 307.584 
L 337.837522 286.545924 
L 334.26989 286.545924 
z
" clip-path="url(#pa9960e04d0)" style="fill: #1f77b4; fill-opacity: 0.5; stroke: #000000; stroke-width: 0.356763; stroke-linejoin: miter"/>
   </g>
   <g id="patch_77">
    <path d="M 337.837522 307.584 
L 341.405155 307.584 
L 341.405155 293.624155 
L 337.837522 293.624155 
z
" clip-path="url(#pa9960e04d0)" style="fill: #1f77b4; fill-opacity: 0.5; stroke: #000000; stroke-width: 0.356763; stroke-linejoin: miter"/>
   </g>
   <g id="patch_78">
    <path d="M 341.405155 307.584 
L 344.972787 307.584 
L 344.972787 291.461362 
L 341.405155 291.461362 
z
" clip-path="url(#pa9960e04d0)" style="fill: #1f77b4; fill-opacity: 0.5; stroke: #000000; stroke-width: 0.356763; stroke-linejoin: miter"/>
   </g>
   <g id="patch_79">
    <path d="M 344.972787 307.584 
L 348.54042 307.584 
L 348.54042 297.163271 
L 344.972787 297.163271 
z
" clip-path="url(#pa9960e04d0)" style="fill: #1f77b4; fill-opacity: 0.5; stroke: #000000; stroke-width: 0.356763; stroke-linejoin: miter"/>
   </g>
   <g id="patch_80">
    <path d="M 348.54042 307.584 
L 352.108052 307.584 
L 352.108052 299.522681 
L 348.54042 299.522681 
z
" clip-path="url(#pa9960e04d0)" style="fill: #1f77b4; fill-opacity: 0.5; stroke: #000000; stroke-width: 0.356763; stroke-linejoin: miter"/>
   </g>
   <g id="patch_81">
    <path d="M 352.108052 307.584 
L 355.675684 307.584 
L 355.675684 301.882092 
L 352.108052 301.882092 
z
" clip-path="url(#pa9960e04d0)" style="fill: #1f77b4; fill-opacity: 0.5; stroke: #000000; stroke-width: 0.356763; stroke-linejoin: miter"/>
   </g>
   <g id="patch_82">
    <path d="M 355.675684 307.584 
L 359.243317 307.584 
L 359.243317 305.027972 
L 355.675684 305.027972 
z
" clip-path="url(#pa9960e04d0)" style="fill: #1f77b4; fill-opacity: 0.5; stroke: #000000; stroke-width: 0.356763; stroke-linejoin: miter"/>
   </g>
   <g id="patch_83">
    <path d="M 359.243317 307.584 
L 362.810949 307.584 
L 362.810949 300.505769 
L 359.243317 300.505769 
z
" clip-path="url(#pa9960e04d0)" style="fill: #1f77b4; fill-opacity: 0.5; stroke: #000000; stroke-width: 0.356763; stroke-linejoin: miter"/>
   </g>
   <g id="patch_84">
    <path d="M 362.810949 307.584 
L 366.378581 307.584 
L 366.378581 304.044884 
L 362.810949 304.044884 
z
" clip-path="url(#pa9960e04d0)" style="fill: #1f77b4; fill-opacity: 0.5; stroke: #000000; stroke-width: 0.356763; stroke-linejoin: miter"/>
   </g>
   <g id="patch_85">
    <path d="M 366.378581 307.584 
L 369.946214 307.584 
L 369.946214 304.634737 
L 366.378581 304.634737 
z
" clip-path="url(#pa9960e04d0)" style="fill: #1f77b4; fill-opacity: 0.5; stroke: #000000; stroke-width: 0.356763; stroke-linejoin: miter"/>
   </g>
   <g id="patch_86">
    <path d="M 369.946214 307.584 
L 373.513846 307.584 
L 373.513846 306.994147 
L 369.946214 306.994147 
z
" clip-path="url(#pa9960e04d0)" style="fill: #1f77b4; fill-opacity: 0.5; stroke: #000000; stroke-width: 0.356763; stroke-linejoin: miter"/>
   </g>
   <g id="patch_87">
    <path d="M 373.513846 307.584 
L 377.081479 307.584 
L 377.081479 302.275327 
L 373.513846 302.275327 
z
" clip-path="url(#pa9960e04d0)" style="fill: #1f77b4; fill-opacity: 0.5; stroke: #000000; stroke-width: 0.356763; stroke-linejoin: miter"/>
   </g>
   <g id="patch_88">
    <path d="M 377.081479 307.584 
L 380.649111 307.584 
L 380.649111 305.617825 
L 377.081479 305.617825 
z
" clip-path="url(#pa9960e04d0)" style="fill: #1f77b4; fill-opacity: 0.5; stroke: #000000; stroke-width: 0.356763; stroke-linejoin: miter"/>
   </g>
   <g id="patch_89">
    <path d="M 380.649111 307.584 
L 384.216743 307.584 
L 384.216743 306.79753 
L 380.649111 306.79753 
z
" clip-path="url(#pa9960e04d0)" style="fill: #1f77b4; fill-opacity: 0.5; stroke: #000000; stroke-width: 0.356763; stroke-linejoin: miter"/>
   </g>
   <g id="patch_90">
    <path d="M 384.216743 307.584 
L 387.784376 307.584 
L 387.784376 306.404295 
L 384.216743 306.404295 
z
" clip-path="url(#pa9960e04d0)" style="fill: #1f77b4; fill-opacity: 0.5; stroke: #000000; stroke-width: 0.356763; stroke-linejoin: miter"/>
   </g>
   <g id="patch_91">
    <path d="M 387.784376 307.584 
L 391.352008 307.584 
L 391.352008 303.651649 
L 387.784376 303.651649 
z
" clip-path="url(#pa9960e04d0)" style="fill: #1f77b4; fill-opacity: 0.5; stroke: #000000; stroke-width: 0.356763; stroke-linejoin: miter"/>
   </g>
   <g id="patch_92">
    <path d="M 391.352008 307.584 
L 394.91964 307.584 
L 394.91964 306.01106 
L 391.352008 306.01106 
z
" clip-path="url(#pa9960e04d0)" style="fill: #1f77b4; fill-opacity: 0.5; stroke: #000000; stroke-width: 0.356763; stroke-linejoin: miter"/>
   </g>
   <g id="patch_93">
    <path d="M 394.91964 307.584 
L 398.487273 307.584 
L 398.487273 306.994147 
L 394.91964 306.994147 
z
" clip-path="url(#pa9960e04d0)" style="fill: #1f77b4; fill-opacity: 0.5; stroke: #000000; stroke-width: 0.356763; stroke-linejoin: miter"/>
   </g>
   <g id="matplotlib.axis_1">
    <g id="xtick_1">
     <g id="line2d_1">
      <defs>
       <path id="m9fb0b6d4d2" d="M 0 0 
L 0 3.5 
" style="stroke: #000000; stroke-width: 0.8"/>
      </defs>
      <g>
       <use xlink:href="#m9fb0b6d4d2" x="87.726663" y="307.584" style="stroke: #000000; stroke-width: 0.8"/>
      </g>
     </g>
     <g id="text_1">
      <!-- 4.25 -->
      <g transform="translate(76.59385 322.182437) scale(0.1 -0.1)">
       <defs>
        <path id="DejaVuSans-34" d="M 2419 4116 
L 825 1625 
L 2419 1625 
L 2419 4116 
z
M 2253 4666 
L 3047 4666 
L 3047 1625 
L 3713 1625 
L 3713 1100 
L 3047 1100 
L 3047 0 
L 2419 0 
L 2419 1100 
L 313 1100 
L 313 1709 
L 2253 4666 
z
" transform="scale(0.015625)"/>
        <path id="DejaVuSans-2e" d="M 684 794 
L 1344 794 
L 1344 0 
L 684 0 
L 684 794 
z
" transform="scale(0.015625)"/>
        <path id="DejaVuSans-32" d="M 1228 531 
L 3431 531 
L 3431 0 
L 469 0 
L 469 531 
Q 828 903 1448 1529 
Q 2069 2156 2228 2338 
Q 2531 2678 2651 2914 
Q 2772 3150 2772 3378 
Q 2772 3750 2511 3984 
Q 2250 4219 1831 4219 
Q 1534 4219 1204 4116 
Q 875 4013 500 3803 
L 500 4441 
Q 881 4594 1212 4672 
Q 1544 4750 1819 4750 
Q 2544 4750 2975 4387 
Q 3406 4025 3406 3419 
Q 3406 3131 3298 2873 
Q 3191 2616 2906 2266 
Q 2828 2175 2409 1742 
Q 1991 1309 1228 531 
z
" transform="scale(0.015625)"/>
        <path id="DejaVuSans-35" d="M 691 4666 
L 3169 4666 
L 3169 4134 
L 1269 4134 
L 1269 2991 
Q 1406 3038 1543 3061 
Q 1681 3084 1819 3084 
Q 2600 3084 3056 2656 
Q 3513 2228 3513 1497 
Q 3513 744 3044 326 
Q 2575 -91 1722 -91 
Q 1428 -91 1123 -41 
Q 819 9 494 109 
L 494 744 
Q 775 591 1075 516 
Q 1375 441 1709 441 
Q 2250 441 2565 725 
Q 2881 1009 2881 1497 
Q 2881 1984 2565 2268 
Q 2250 2553 1709 2553 
Q 1456 2553 1204 2497 
Q 953 2441 691 2322 
L 691 4666 
z
" transform="scale(0.015625)"/>
       </defs>
       <use xlink:href="#DejaVuSans-34"/>
       <use xlink:href="#DejaVuSans-2e" transform="translate(63.623047 0)"/>
       <use xlink:href="#DejaVuSans-32" transform="translate(95.410156 0)"/>
       <use xlink:href="#DejaVuSans-35" transform="translate(159.033203 0)"/>
      </g>
     </g>
    </g>
    <g id="xtick_2">
     <g id="line2d_2">
      <g>
       <use xlink:href="#m9fb0b6d4d2" x="134.723591" y="307.584" style="stroke: #000000; stroke-width: 0.8"/>
      </g>
     </g>
     <g id="text_2">
      <!-- 4.50 -->
      <g transform="translate(123.590779 322.182437) scale(0.1 -0.1)">
       <defs>
        <path id="DejaVuSans-30" d="M 2034 4250 
Q 1547 4250 1301 3770 
Q 1056 3291 1056 2328 
Q 1056 1369 1301 889 
Q 1547 409 2034 409 
Q 2525 409 2770 889 
Q 3016 1369 3016 2328 
Q 3016 3291 2770 3770 
Q 2525 4250 2034 4250 
z
M 2034 4750 
Q 2819 4750 3233 4129 
Q 3647 3509 3647 2328 
Q 3647 1150 3233 529 
Q 2819 -91 2034 -91 
Q 1250 -91 836 529 
Q 422 1150 422 2328 
Q 422 3509 836 4129 
Q 1250 4750 2034 4750 
z
" transform="scale(0.015625)"/>
       </defs>
       <use xlink:href="#DejaVuSans-34"/>
       <use xlink:href="#DejaVuSans-2e" transform="translate(63.623047 0)"/>
       <use xlink:href="#DejaVuSans-35" transform="translate(95.410156 0)"/>
       <use xlink:href="#DejaVuSans-30" transform="translate(159.033203 0)"/>
      </g>
     </g>
    </g>
    <g id="xtick_3">
     <g id="line2d_3">
      <g>
       <use xlink:href="#m9fb0b6d4d2" x="181.72052" y="307.584" style="stroke: #000000; stroke-width: 0.8"/>
      </g>
     </g>
     <g id="text_3">
      <!-- 4.75 -->
      <g transform="translate(170.587708 322.182437) scale(0.1 -0.1)">
       <defs>
        <path id="DejaVuSans-37" d="M 525 4666 
L 3525 4666 
L 3525 4397 
L 1831 0 
L 1172 0 
L 2766 4134 
L 525 4134 
L 525 4666 
z
" transform="scale(0.015625)"/>
       </defs>
       <use xlink:href="#DejaVuSans-34"/>
       <use xlink:href="#DejaVuSans-2e" transform="translate(63.623047 0)"/>
       <use xlink:href="#DejaVuSans-37" transform="translate(95.410156 0)"/>
       <use xlink:href="#DejaVuSans-35" transform="translate(159.033203 0)"/>
      </g>
     </g>
    </g>
    <g id="xtick_4">
     <g id="line2d_4">
      <g>
       <use xlink:href="#m9fb0b6d4d2" x="228.717449" y="307.584" style="stroke: #000000; stroke-width: 0.8"/>
      </g>
     </g>
     <g id="text_4">
      <!-- 5.00 -->
      <g transform="translate(217.584637 322.182437) scale(0.1 -0.1)">
       <use xlink:href="#DejaVuSans-35"/>
       <use xlink:href="#DejaVuSans-2e" transform="translate(63.623047 0)"/>
       <use xlink:href="#DejaVuSans-30" transform="translate(95.410156 0)"/>
       <use xlink:href="#DejaVuSans-30" transform="translate(159.033203 0)"/>
      </g>
     </g>
    </g>
    <g id="xtick_5">
     <g id="line2d_5">
      <g>
       <use xlink:href="#m9fb0b6d4d2" x="275.714378" y="307.584" style="stroke: #000000; stroke-width: 0.8"/>
      </g>
     </g>
     <g id="text_5">
      <!-- 5.25 -->
      <g transform="translate(264.581566 322.182437) scale(0.1 -0.1)">
       <use xlink:href="#DejaVuSans-35"/>
       <use xlink:href="#DejaVuSans-2e" transform="translate(63.623047 0)"/>
       <use xlink:href="#DejaVuSans-32" transform="translate(95.410156 0)"/>
       <use xlink:href="#DejaVuSans-35" transform="translate(159.033203 0)"/>
      </g>
     </g>
    </g>
    <g id="xtick_6">
     <g id="line2d_6">
      <g>
       <use xlink:href="#m9fb0b6d4d2" x="322.711307" y="307.584" style="stroke: #000000; stroke-width: 0.8"/>
      </g>
     </g>
     <g id="text_6">
      <!-- 5.50 -->
      <g transform="translate(311.578494 322.182437) scale(0.1 -0.1)">
       <use xlink:href="#DejaVuSans-35"/>
       <use xlink:href="#DejaVuSans-2e" transform="translate(63.623047 0)"/>
       <use xlink:href="#DejaVuSans-35" transform="translate(95.410156 0)"/>
       <use xlink:href="#DejaVuSans-30" transform="translate(159.033203 0)"/>
      </g>
     </g>
    </g>
    <g id="xtick_7">
     <g id="line2d_7">
      <g>
       <use xlink:href="#m9fb0b6d4d2" x="369.708236" y="307.584" style="stroke: #000000; stroke-width: 0.8"/>
      </g>
     </g>
     <g id="text_7">
      <!-- 5.75 -->
      <g transform="translate(358.575423 322.182437) scale(0.1 -0.1)">
       <use xlink:href="#DejaVuSans-35"/>
       <use xlink:href="#DejaVuSans-2e" transform="translate(63.623047 0)"/>
       <use xlink:href="#DejaVuSans-37" transform="translate(95.410156 0)"/>
       <use xlink:href="#DejaVuSans-35" transform="translate(159.033203 0)"/>
      </g>
     </g>
    </g>
    <g id="text_8">
     <!-- Salarios en escala logaritmica -->
     <g transform="translate(161.235781 335.860562) scale(0.1 -0.1)">
      <defs>
       <path id="DejaVuSans-53" d="M 3425 4513 
L 3425 3897 
Q 3066 4069 2747 4153 
Q 2428 4238 2131 4238 
Q 1616 4238 1336 4038 
Q 1056 3838 1056 3469 
Q 1056 3159 1242 3001 
Q 1428 2844 1947 2747 
L 2328 2669 
Q 3034 2534 3370 2195 
Q 3706 1856 3706 1288 
Q 3706 609 3251 259 
Q 2797 -91 1919 -91 
Q 1588 -91 1214 -16 
Q 841 59 441 206 
L 441 856 
Q 825 641 1194 531 
Q 1563 422 1919 422 
Q 2459 422 2753 634 
Q 3047 847 3047 1241 
Q 3047 1584 2836 1778 
Q 2625 1972 2144 2069 
L 1759 2144 
Q 1053 2284 737 2584 
Q 422 2884 422 3419 
Q 422 4038 858 4394 
Q 1294 4750 2059 4750 
Q 2388 4750 2728 4690 
Q 3069 4631 3425 4513 
z
" transform="scale(0.015625)"/>
       <path id="DejaVuSans-61" d="M 2194 1759 
Q 1497 1759 1228 1600 
Q 959 1441 959 1056 
Q 959 750 1161 570 
Q 1363 391 1709 391 
Q 2188 391 2477 730 
Q 2766 1069 2766 1631 
L 2766 1759 
L 2194 1759 
z
M 3341 1997 
L 3341 0 
L 2766 0 
L 2766 531 
Q 2569 213 2275 61 
Q 1981 -91 1556 -91 
Q 1019 -91 701 211 
Q 384 513 384 1019 
Q 384 1609 779 1909 
Q 1175 2209 1959 2209 
L 2766 2209 
L 2766 2266 
Q 2766 2663 2505 2880 
Q 2244 3097 1772 3097 
Q 1472 3097 1187 3025 
Q 903 2953 641 2809 
L 641 3341 
Q 956 3463 1253 3523 
Q 1550 3584 1831 3584 
Q 2591 3584 2966 3190 
Q 3341 2797 3341 1997 
z
" transform="scale(0.015625)"/>
       <path id="DejaVuSans-6c" d="M 603 4863 
L 1178 4863 
L 1178 0 
L 603 0 
L 603 4863 
z
" transform="scale(0.015625)"/>
       <path id="DejaVuSans-72" d="M 2631 2963 
Q 2534 3019 2420 3045 
Q 2306 3072 2169 3072 
Q 1681 3072 1420 2755 
Q 1159 2438 1159 1844 
L 1159 0 
L 581 0 
L 581 3500 
L 1159 3500 
L 1159 2956 
Q 1341 3275 1631 3429 
Q 1922 3584 2338 3584 
Q 2397 3584 2469 3576 
Q 2541 3569 2628 3553 
L 2631 2963 
z
" transform="scale(0.015625)"/>
       <path id="DejaVuSans-69" d="M 603 3500 
L 1178 3500 
L 1178 0 
L 603 0 
L 603 3500 
z
M 603 4863 
L 1178 4863 
L 1178 4134 
L 603 4134 
L 603 4863 
z
" transform="scale(0.015625)"/>
       <path id="DejaVuSans-6f" d="M 1959 3097 
Q 1497 3097 1228 2736 
Q 959 2375 959 1747 
Q 959 1119 1226 758 
Q 1494 397 1959 397 
Q 2419 397 2687 759 
Q 2956 1122 2956 1747 
Q 2956 2369 2687 2733 
Q 2419 3097 1959 3097 
z
M 1959 3584 
Q 2709 3584 3137 3096 
Q 3566 2609 3566 1747 
Q 3566 888 3137 398 
Q 2709 -91 1959 -91 
Q 1206 -91 779 398 
Q 353 888 353 1747 
Q 353 2609 779 3096 
Q 1206 3584 1959 3584 
z
" transform="scale(0.015625)"/>
       <path id="DejaVuSans-73" d="M 2834 3397 
L 2834 2853 
Q 2591 2978 2328 3040 
Q 2066 3103 1784 3103 
Q 1356 3103 1142 2972 
Q 928 2841 928 2578 
Q 928 2378 1081 2264 
Q 1234 2150 1697 2047 
L 1894 2003 
Q 2506 1872 2764 1633 
Q 3022 1394 3022 966 
Q 3022 478 2636 193 
Q 2250 -91 1575 -91 
Q 1294 -91 989 -36 
Q 684 19 347 128 
L 347 722 
Q 666 556 975 473 
Q 1284 391 1588 391 
Q 1994 391 2212 530 
Q 2431 669 2431 922 
Q 2431 1156 2273 1281 
Q 2116 1406 1581 1522 
L 1381 1569 
Q 847 1681 609 1914 
Q 372 2147 372 2553 
Q 372 3047 722 3315 
Q 1072 3584 1716 3584 
Q 2034 3584 2315 3537 
Q 2597 3491 2834 3397 
z
" transform="scale(0.015625)"/>
       <path id="DejaVuSans-20" transform="scale(0.015625)"/>
       <path id="DejaVuSans-65" d="M 3597 1894 
L 3597 1613 
L 953 1613 
Q 991 1019 1311 708 
Q 1631 397 2203 397 
Q 2534 397 2845 478 
Q 3156 559 3463 722 
L 3463 178 
Q 3153 47 2828 -22 
Q 2503 -91 2169 -91 
Q 1331 -91 842 396 
Q 353 884 353 1716 
Q 353 2575 817 3079 
Q 1281 3584 2069 3584 
Q 2775 3584 3186 3129 
Q 3597 2675 3597 1894 
z
M 3022 2063 
Q 3016 2534 2758 2815 
Q 2500 3097 2075 3097 
Q 1594 3097 1305 2825 
Q 1016 2553 972 2059 
L 3022 2063 
z
" transform="scale(0.015625)"/>
       <path id="DejaVuSans-6e" d="M 3513 2113 
L 3513 0 
L 2938 0 
L 2938 2094 
Q 2938 2591 2744 2837 
Q 2550 3084 2163 3084 
Q 1697 3084 1428 2787 
Q 1159 2491 1159 1978 
L 1159 0 
L 581 0 
L 581 3500 
L 1159 3500 
L 1159 2956 
Q 1366 3272 1645 3428 
Q 1925 3584 2291 3584 
Q 2894 3584 3203 3211 
Q 3513 2838 3513 2113 
z
" transform="scale(0.015625)"/>
       <path id="DejaVuSans-63" d="M 3122 3366 
L 3122 2828 
Q 2878 2963 2633 3030 
Q 2388 3097 2138 3097 
Q 1578 3097 1268 2742 
Q 959 2388 959 1747 
Q 959 1106 1268 751 
Q 1578 397 2138 397 
Q 2388 397 2633 464 
Q 2878 531 3122 666 
L 3122 134 
Q 2881 22 2623 -34 
Q 2366 -91 2075 -91 
Q 1284 -91 818 406 
Q 353 903 353 1747 
Q 353 2603 823 3093 
Q 1294 3584 2113 3584 
Q 2378 3584 2631 3529 
Q 2884 3475 3122 3366 
z
" transform="scale(0.015625)"/>
       <path id="DejaVuSans-67" d="M 2906 1791 
Q 2906 2416 2648 2759 
Q 2391 3103 1925 3103 
Q 1463 3103 1205 2759 
Q 947 2416 947 1791 
Q 947 1169 1205 825 
Q 1463 481 1925 481 
Q 2391 481 2648 825 
Q 2906 1169 2906 1791 
z
M 3481 434 
Q 3481 -459 3084 -895 
Q 2688 -1331 1869 -1331 
Q 1566 -1331 1297 -1286 
Q 1028 -1241 775 -1147 
L 775 -588 
Q 1028 -725 1275 -790 
Q 1522 -856 1778 -856 
Q 2344 -856 2625 -561 
Q 2906 -266 2906 331 
L 2906 616 
Q 2728 306 2450 153 
Q 2172 0 1784 0 
Q 1141 0 747 490 
Q 353 981 353 1791 
Q 353 2603 747 3093 
Q 1141 3584 1784 3584 
Q 2172 3584 2450 3431 
Q 2728 3278 2906 2969 
L 2906 3500 
L 3481 3500 
L 3481 434 
z
" transform="scale(0.015625)"/>
       <path id="DejaVuSans-74" d="M 1172 4494 
L 1172 3500 
L 2356 3500 
L 2356 3053 
L 1172 3053 
L 1172 1153 
Q 1172 725 1289 603 
Q 1406 481 1766 481 
L 2356 481 
L 2356 0 
L 1766 0 
Q 1100 0 847 248 
Q 594 497 594 1153 
L 594 3053 
L 172 3053 
L 172 3500 
L 594 3500 
L 594 4494 
L 1172 4494 
z
" transform="scale(0.015625)"/>
       <path id="DejaVuSans-6d" d="M 3328 2828 
Q 3544 3216 3844 3400 
Q 4144 3584 4550 3584 
Q 5097 3584 5394 3201 
Q 5691 2819 5691 2113 
L 5691 0 
L 5113 0 
L 5113 2094 
Q 5113 2597 4934 2840 
Q 4756 3084 4391 3084 
Q 3944 3084 3684 2787 
Q 3425 2491 3425 1978 
L 3425 0 
L 2847 0 
L 2847 2094 
Q 2847 2600 2669 2842 
Q 2491 3084 2119 3084 
Q 1678 3084 1418 2786 
Q 1159 2488 1159 1978 
L 1159 0 
L 581 0 
L 581 3500 
L 1159 3500 
L 1159 2956 
Q 1356 3278 1631 3431 
Q 1906 3584 2284 3584 
Q 2666 3584 2933 3390 
Q 3200 3197 3328 2828 
z
" transform="scale(0.015625)"/>
      </defs>
      <use xlink:href="#DejaVuSans-53"/>
      <use xlink:href="#DejaVuSans-61" transform="translate(63.476562 0)"/>
      <use xlink:href="#DejaVuSans-6c" transform="translate(124.755859 0)"/>
      <use xlink:href="#DejaVuSans-61" transform="translate(152.539062 0)"/>
      <use xlink:href="#DejaVuSans-72" transform="translate(213.818359 0)"/>
      <use xlink:href="#DejaVuSans-69" transform="translate(254.931641 0)"/>
      <use xlink:href="#DejaVuSans-6f" transform="translate(282.714844 0)"/>
      <use xlink:href="#DejaVuSans-73" transform="translate(343.896484 0)"/>
      <use xlink:href="#DejaVuSans-20" transform="translate(395.996094 0)"/>
      <use xlink:href="#DejaVuSans-65" transform="translate(427.783203 0)"/>
      <use xlink:href="#DejaVuSans-6e" transform="translate(489.306641 0)"/>
      <use xlink:href="#DejaVuSans-20" transform="translate(552.685547 0)"/>
      <use xlink:href="#DejaVuSans-65" transform="translate(584.472656 0)"/>
      <use xlink:href="#DejaVuSans-73" transform="translate(645.996094 0)"/>
      <use xlink:href="#DejaVuSans-63" transform="translate(698.095703 0)"/>
      <use xlink:href="#DejaVuSans-61" transform="translate(753.076172 0)"/>
      <use xlink:href="#DejaVuSans-6c" transform="translate(814.355469 0)"/>
      <use xlink:href="#DejaVuSans-61" transform="translate(842.138672 0)"/>
      <use xlink:href="#DejaVuSans-20" transform="translate(903.417969 0)"/>
      <use xlink:href="#DejaVuSans-6c" transform="translate(935.205078 0)"/>
      <use xlink:href="#DejaVuSans-6f" transform="translate(962.988281 0)"/>
      <use xlink:href="#DejaVuSans-67" transform="translate(1024.169922 0)"/>
      <use xlink:href="#DejaVuSans-61" transform="translate(1087.646484 0)"/>
      <use xlink:href="#DejaVuSans-72" transform="translate(1148.925781 0)"/>
      <use xlink:href="#DejaVuSans-69" transform="translate(1190.039062 0)"/>
      <use xlink:href="#DejaVuSans-74" transform="translate(1217.822266 0)"/>
      <use xlink:href="#DejaVuSans-6d" transform="translate(1257.03125 0)"/>
      <use xlink:href="#DejaVuSans-69" transform="translate(1354.443359 0)"/>
      <use xlink:href="#DejaVuSans-63" transform="translate(1382.226562 0)"/>
      <use xlink:href="#DejaVuSans-61" transform="translate(1437.207031 0)"/>
     </g>
    </g>
   </g>
   <g id="matplotlib.axis_2">
    <g id="ytick_1">
     <g id="line2d_8">
      <defs>
       <path id="maaa581742e" d="M 0 0 
L -3.5 0 
" style="stroke: #000000; stroke-width: 0.8"/>
      </defs>
      <g>
       <use xlink:href="#maaa581742e" x="57.6" y="307.584" style="stroke: #000000; stroke-width: 0.8"/>
      </g>
     </g>
     <g id="text_9">
      <!-- 0 -->
      <g transform="translate(44.2375 311.383219) scale(0.1 -0.1)">
       <use xlink:href="#DejaVuSans-30"/>
      </g>
     </g>
    </g>
    <g id="ytick_2">
     <g id="line2d_9">
      <g>
       <use xlink:href="#maaa581742e" x="57.6" y="268.260493" style="stroke: #000000; stroke-width: 0.8"/>
      </g>
     </g>
     <g id="text_10">
      <!-- 200 -->
      <g transform="translate(31.5125 272.059712) scale(0.1 -0.1)">
       <use xlink:href="#DejaVuSans-32"/>
       <use xlink:href="#DejaVuSans-30" transform="translate(63.623047 0)"/>
       <use xlink:href="#DejaVuSans-30" transform="translate(127.246094 0)"/>
      </g>
     </g>
    </g>
    <g id="ytick_3">
     <g id="line2d_10">
      <g>
       <use xlink:href="#maaa581742e" x="57.6" y="228.936987" style="stroke: #000000; stroke-width: 0.8"/>
      </g>
     </g>
     <g id="text_11">
      <!-- 400 -->
      <g transform="translate(31.5125 232.736206) scale(0.1 -0.1)">
       <use xlink:href="#DejaVuSans-34"/>
       <use xlink:href="#DejaVuSans-30" transform="translate(63.623047 0)"/>
       <use xlink:href="#DejaVuSans-30" transform="translate(127.246094 0)"/>
      </g>
     </g>
    </g>
    <g id="ytick_4">
     <g id="line2d_11">
      <g>
       <use xlink:href="#maaa581742e" x="57.6" y="189.61348" style="stroke: #000000; stroke-width: 0.8"/>
      </g>
     </g>
     <g id="text_12">
      <!-- 600 -->
      <g transform="translate(31.5125 193.412699) scale(0.1 -0.1)">
       <defs>
        <path id="DejaVuSans-36" d="M 2113 2584 
Q 1688 2584 1439 2293 
Q 1191 2003 1191 1497 
Q 1191 994 1439 701 
Q 1688 409 2113 409 
Q 2538 409 2786 701 
Q 3034 994 3034 1497 
Q 3034 2003 2786 2293 
Q 2538 2584 2113 2584 
z
M 3366 4563 
L 3366 3988 
Q 3128 4100 2886 4159 
Q 2644 4219 2406 4219 
Q 1781 4219 1451 3797 
Q 1122 3375 1075 2522 
Q 1259 2794 1537 2939 
Q 1816 3084 2150 3084 
Q 2853 3084 3261 2657 
Q 3669 2231 3669 1497 
Q 3669 778 3244 343 
Q 2819 -91 2113 -91 
Q 1303 -91 875 529 
Q 447 1150 447 2328 
Q 447 3434 972 4092 
Q 1497 4750 2381 4750 
Q 2619 4750 2861 4703 
Q 3103 4656 3366 4563 
z
" transform="scale(0.015625)"/>
       </defs>
       <use xlink:href="#DejaVuSans-36"/>
       <use xlink:href="#DejaVuSans-30" transform="translate(63.623047 0)"/>
       <use xlink:href="#DejaVuSans-30" transform="translate(127.246094 0)"/>
      </g>
     </g>
    </g>
    <g id="ytick_5">
     <g id="line2d_12">
      <g>
       <use xlink:href="#maaa581742e" x="57.6" y="150.289974" style="stroke: #000000; stroke-width: 0.8"/>
      </g>
     </g>
     <g id="text_13">
      <!-- 800 -->
      <g transform="translate(31.5125 154.089192) scale(0.1 -0.1)">
       <defs>
        <path id="DejaVuSans-38" d="M 2034 2216 
Q 1584 2216 1326 1975 
Q 1069 1734 1069 1313 
Q 1069 891 1326 650 
Q 1584 409 2034 409 
Q 2484 409 2743 651 
Q 3003 894 3003 1313 
Q 3003 1734 2745 1975 
Q 2488 2216 2034 2216 
z
M 1403 2484 
Q 997 2584 770 2862 
Q 544 3141 544 3541 
Q 544 4100 942 4425 
Q 1341 4750 2034 4750 
Q 2731 4750 3128 4425 
Q 3525 4100 3525 3541 
Q 3525 3141 3298 2862 
Q 3072 2584 2669 2484 
Q 3125 2378 3379 2068 
Q 3634 1759 3634 1313 
Q 3634 634 3220 271 
Q 2806 -91 2034 -91 
Q 1263 -91 848 271 
Q 434 634 434 1313 
Q 434 1759 690 2068 
Q 947 2378 1403 2484 
z
M 1172 3481 
Q 1172 3119 1398 2916 
Q 1625 2713 2034 2713 
Q 2441 2713 2670 2916 
Q 2900 3119 2900 3481 
Q 2900 3844 2670 4047 
Q 2441 4250 2034 4250 
Q 1625 4250 1398 4047 
Q 1172 3844 1172 3481 
z
" transform="scale(0.015625)"/>
       </defs>
       <use xlink:href="#DejaVuSans-38"/>
       <use xlink:href="#DejaVuSans-30" transform="translate(63.623047 0)"/>
       <use xlink:href="#DejaVuSans-30" transform="translate(127.246094 0)"/>
      </g>
     </g>
    </g>
    <g id="ytick_6">
     <g id="line2d_13">
      <g>
       <use xlink:href="#maaa581742e" x="57.6" y="110.966467" style="stroke: #000000; stroke-width: 0.8"/>
      </g>
     </g>
     <g id="text_14">
      <!-- 1000 -->
      <g transform="translate(25.15 114.765686) scale(0.1 -0.1)">
       <defs>
        <path id="DejaVuSans-31" d="M 794 531 
L 1825 531 
L 1825 4091 
L 703 3866 
L 703 4441 
L 1819 4666 
L 2450 4666 
L 2450 531 
L 3481 531 
L 3481 0 
L 794 0 
L 794 531 
z
" transform="scale(0.015625)"/>
       </defs>
       <use xlink:href="#DejaVuSans-31"/>
       <use xlink:href="#DejaVuSans-30" transform="translate(63.623047 0)"/>
       <use xlink:href="#DejaVuSans-30" transform="translate(127.246094 0)"/>
       <use xlink:href="#DejaVuSans-30" transform="translate(190.869141 0)"/>
      </g>
     </g>
    </g>
    <g id="ytick_7">
     <g id="line2d_14">
      <g>
       <use xlink:href="#maaa581742e" x="57.6" y="71.64296" style="stroke: #000000; stroke-width: 0.8"/>
      </g>
     </g>
     <g id="text_15">
      <!-- 1200 -->
      <g transform="translate(25.15 75.442179) scale(0.1 -0.1)">
       <use xlink:href="#DejaVuSans-31"/>
       <use xlink:href="#DejaVuSans-32" transform="translate(63.623047 0)"/>
       <use xlink:href="#DejaVuSans-30" transform="translate(127.246094 0)"/>
       <use xlink:href="#DejaVuSans-30" transform="translate(190.869141 0)"/>
      </g>
     </g>
    </g>
    <g id="text_16">
     <!-- Frecuencia -->
     <g transform="translate(19.070312 201.426437) rotate(-90) scale(0.1 -0.1)">
      <defs>
       <path id="DejaVuSans-46" d="M 628 4666 
L 3309 4666 
L 3309 4134 
L 1259 4134 
L 1259 2759 
L 3109 2759 
L 3109 2228 
L 1259 2228 
L 1259 0 
L 628 0 
L 628 4666 
z
" transform="scale(0.015625)"/>
       <path id="DejaVuSans-75" d="M 544 1381 
L 544 3500 
L 1119 3500 
L 1119 1403 
Q 1119 906 1312 657 
Q 1506 409 1894 409 
Q 2359 409 2629 706 
Q 2900 1003 2900 1516 
L 2900 3500 
L 3475 3500 
L 3475 0 
L 2900 0 
L 2900 538 
Q 2691 219 2414 64 
Q 2138 -91 1772 -91 
Q 1169 -91 856 284 
Q 544 659 544 1381 
z
M 1991 3584 
L 1991 3584 
z
" transform="scale(0.015625)"/>
      </defs>
      <use xlink:href="#DejaVuSans-46"/>
      <use xlink:href="#DejaVuSans-72" transform="translate(50.269531 0)"/>
      <use xlink:href="#DejaVuSans-65" transform="translate(89.132812 0)"/>
      <use xlink:href="#DejaVuSans-63" transform="translate(150.65625 0)"/>
      <use xlink:href="#DejaVuSans-75" transform="translate(205.636719 0)"/>
      <use xlink:href="#DejaVuSans-65" transform="translate(269.015625 0)"/>
      <use xlink:href="#DejaVuSans-6e" transform="translate(330.539062 0)"/>
      <use xlink:href="#DejaVuSans-63" transform="translate(393.917969 0)"/>
      <use xlink:href="#DejaVuSans-69" transform="translate(448.898438 0)"/>
      <use xlink:href="#DejaVuSans-61" transform="translate(476.681641 0)"/>
     </g>
    </g>
   </g>
   <g id="line2d_15">
    <path d="M 73.832727 306.363599 
L 78.727017 305.688034 
L 85.252736 305.101767 
L 99.935605 304.099118 
L 108.092755 303.961584 
L 121.144194 302.690995 
L 122.775624 302.297701 
L 124.407053 301.72876 
L 127.669913 300.202886 
L 130.932773 298.703967 
L 132.564203 298.154423 
L 135.827063 297.454185 
L 139.089922 296.767003 
L 140.721352 296.218821 
L 142.352782 295.484962 
L 143.984212 294.57651 
L 147.247072 292.357348 
L 150.509931 289.725616 
L 153.772791 286.671283 
L 157.035651 283.247321 
L 163.56137 276.079483 
L 166.82423 272.186889 
L 170.08709 267.824367 
L 173.34995 263.093935 
L 176.61281 257.923812 
L 178.244239 255.062474 
L 181.507099 248.667588 
L 189.664249 231.430308 
L 194.558538 221.812259 
L 196.189968 218.294993 
L 197.821398 214.45381 
L 201.084258 205.794891 
L 210.872837 178.067332 
L 214.135697 169.419735 
L 217.398556 161.431196 
L 220.661416 154.186295 
L 223.924276 147.745999 
L 227.187136 142.210502 
L 228.818566 139.518609 
L 230.449995 136.565738 
L 232.081425 133.139094 
L 233.712855 129.164195 
L 240.238575 111.546818 
L 241.870005 107.927007 
L 243.501434 104.76599 
L 248.395724 96.130008 
L 253.290014 86.593847 
L 254.921444 84.088108 
L 256.552873 82.512119 
L 258.184303 82.023525 
L 259.815733 82.505612 
L 264.710023 85.643749 
L 266.341453 85.9485 
L 267.972883 85.767012 
L 269.604312 85.441579 
L 271.235742 85.471864 
L 272.867172 86.349967 
L 274.498602 88.401266 
L 276.130032 91.687142 
L 277.761462 96.006297 
L 281.024322 106.267469 
L 287.550041 127.540526 
L 290.812901 139.213043 
L 295.70719 157.357443 
L 298.97005 168.500925 
L 302.23291 179.608679 
L 305.49577 191.950638 
L 310.390059 211.379275 
L 313.652919 223.088473 
L 321.810069 250.454571 
L 325.072928 260.374106 
L 326.704358 264.798774 
L 328.335788 268.867991 
L 331.598648 276.105629 
L 333.230078 279.336222 
L 334.861508 282.313048 
L 336.492937 285.020308 
L 338.124367 287.444393 
L 339.755797 289.588406 
L 341.387227 291.478841 
L 344.650087 294.686847 
L 347.912947 297.4014 
L 351.175806 299.655903 
L 352.807236 300.553747 
L 354.438666 301.280519 
L 356.070096 301.849862 
L 359.332956 302.668403 
L 365.858675 303.958217 
L 369.121535 304.417353 
L 385.435834 305.779511 
L 390.330123 305.757004 
L 393.592983 306.058433 
L 398.487273 306.84491 
L 398.487273 306.84491 
" clip-path="url(#pa9960e04d0)" style="fill: none; stroke: #1f77b4; stroke-width: 1.5; stroke-linecap: square"/>
   </g>
   <g id="patch_94">
    <path d="M 57.6 307.584 
L 57.6 41.472 
" style="fill: none; stroke: #000000; stroke-width: 0.8; stroke-linejoin: miter; stroke-linecap: square"/>
   </g>
   <g id="patch_95">
    <path d="M 414.72 307.584 
L 414.72 41.472 
" style="fill: none; stroke: #000000; stroke-width: 0.8; stroke-linejoin: miter; stroke-linecap: square"/>
   </g>
   <g id="patch_96">
    <path d="M 57.6 307.584 
L 414.72 307.584 
" style="fill: none; stroke: #000000; stroke-width: 0.8; stroke-linejoin: miter; stroke-linecap: square"/>
   </g>
   <g id="patch_97">
    <path d="M 57.6 41.472 
L 414.72 41.472 
" style="fill: none; stroke: #000000; stroke-width: 0.8; stroke-linejoin: miter; stroke-linecap: square"/>
   </g>
  </g>
 </g>
 <defs>
  <clipPath id="pa9960e04d0">
   <rect x="57.6" y="41.472" width="357.12" height="266.112"/>
  </clipPath>
 </defs>
</svg>
