<?xml version="1.0" encoding="utf-8" standalone="no"?>
<!DOCTYPE svg PUBLIC "-//W3C//DTD SVG 1.1//EN"
  "http://www.w3.org/Graphics/SVG/1.1/DTD/svg11.dtd">
<svg xmlns:xlink="http://www.w3.org/1999/xlink" width="460.8pt" height="345.6pt" viewBox="0 0 460.8 345.6" xmlns="http://www.w3.org/2000/svg" version="1.1">
 <metadata>
  <rdf:RDF xmlns:dc="http://purl.org/dc/elements/1.1/" xmlns:cc="http://creativecommons.org/ns#" xmlns:rdf="http://www.w3.org/1999/02/22-rdf-syntax-ns#">
   <cc:Work>
    <dc:type rdf:resource="http://purl.org/dc/dcmitype/StillImage"/>
    <dc:date>2025-04-10T11:40:06.887560</dc:date>
    <dc:format>image/svg+xml</dc:format>
    <dc:creator>
     <cc:Agent>
      <dc:title>Matplotlib v3.10.1, https://matplotlib.org/</dc:title>
     </cc:Agent>
    </dc:creator>
   </cc:Work>
  </rdf:RDF>
 </metadata>
 <defs>
  <style type="text/css">*{stroke-linejoin: round; stroke-linecap: butt}</style>
 </defs>
 <g id="figure_1">
  <g id="patch_1">
   <path d="M 0 345.6 
L 460.8 345.6 
L 460.8 0 
L 0 0 
z
" style="fill: #ffffff"/>
  </g>
  <g id="axes_1">
   <g id="patch_2">
    <path d="M 57.6 307.584 
L 414.72 307.584 
L 414.72 41.472 
L 57.6 41.472 
z
" style="fill: #ffffff"/>
   </g>
   <g id="patch_3">
    <path d="M 73.832727 307.584 
L 76.515823 307.584 
L 76.515823 280.128 
L 73.832727 280.128 
z
" clip-path="url(#p0c5a910bc1)" style="fill: #1f77b4; fill-opacity: 0.5; stroke: #000000; stroke-width: 0.26831; stroke-linejoin: miter"/>
   </g>
   <g id="patch_4">
    <path d="M 76.515823 307.584 
L 79.198918 307.584 
L 79.198918 283.178667 
L 76.515823 283.178667 
z
" clip-path="url(#p0c5a910bc1)" style="fill: #1f77b4; fill-opacity: 0.5; stroke: #000000; stroke-width: 0.26831; stroke-linejoin: miter"/>
   </g>
   <g id="patch_5">
    <path d="M 79.198918 307.584 
L 81.882014 307.584 
L 81.882014 259.946667 
L 79.198918 259.946667 
z
" clip-path="url(#p0c5a910bc1)" style="fill: #1f77b4; fill-opacity: 0.5; stroke: #000000; stroke-width: 0.26831; stroke-linejoin: miter"/>
   </g>
   <g id="patch_6">
    <path d="M 81.882014 307.584 
L 84.565109 307.584 
L 84.565109 237.888 
L 81.882014 237.888 
z
" clip-path="url(#p0c5a910bc1)" style="fill: #1f77b4; fill-opacity: 0.5; stroke: #000000; stroke-width: 0.26831; stroke-linejoin: miter"/>
   </g>
   <g id="patch_7">
    <path d="M 84.565109 307.584 
L 87.248204 307.584 
L 87.248204 203.626667 
L 84.565109 203.626667 
z
" clip-path="url(#p0c5a910bc1)" style="fill: #1f77b4; fill-opacity: 0.5; stroke: #000000; stroke-width: 0.26831; stroke-linejoin: miter"/>
   </g>
   <g id="patch_8">
    <path d="M 87.248204 307.584 
L 89.9313 307.584 
L 89.9313 178.517333 
L 87.248204 178.517333 
z
" clip-path="url(#p0c5a910bc1)" style="fill: #1f77b4; fill-opacity: 0.5; stroke: #000000; stroke-width: 0.26831; stroke-linejoin: miter"/>
   </g>
   <g id="patch_9">
    <path d="M 89.9313 307.584 
L 92.614395 307.584 
L 92.614395 134.165333 
L 89.9313 134.165333 
z
" clip-path="url(#p0c5a910bc1)" style="fill: #1f77b4; fill-opacity: 0.5; stroke: #000000; stroke-width: 0.26831; stroke-linejoin: miter"/>
   </g>
   <g id="patch_10">
    <path d="M 92.614395 307.584 
L 95.297491 307.584 
L 95.297491 126.186667 
L 92.614395 126.186667 
z
" clip-path="url(#p0c5a910bc1)" style="fill: #1f77b4; fill-opacity: 0.5; stroke: #000000; stroke-width: 0.26831; stroke-linejoin: miter"/>
   </g>
   <g id="patch_11">
    <path d="M 95.297491 307.584 
L 97.980586 307.584 
L 97.980586 108.352 
L 95.297491 108.352 
z
" clip-path="url(#p0c5a910bc1)" style="fill: #1f77b4; fill-opacity: 0.5; stroke: #000000; stroke-width: 0.26831; stroke-linejoin: miter"/>
   </g>
   <g id="patch_12">
    <path d="M 97.980586 307.584 
L 100.663681 307.584 
L 100.663681 81.6 
L 97.980586 81.6 
z
" clip-path="url(#p0c5a910bc1)" style="fill: #1f77b4; fill-opacity: 0.5; stroke: #000000; stroke-width: 0.26831; stroke-linejoin: miter"/>
   </g>
   <g id="patch_13">
    <path d="M 100.663681 307.584 
L 103.346777 307.584 
L 103.346777 54.613333 
L 100.663681 54.613333 
z
" clip-path="url(#p0c5a910bc1)" style="fill: #1f77b4; fill-opacity: 0.5; stroke: #000000; stroke-width: 0.26831; stroke-linejoin: miter"/>
   </g>
   <g id="patch_14">
    <path d="M 103.346777 307.584 
L 106.029872 307.584 
L 106.029872 71.978667 
L 103.346777 71.978667 
z
" clip-path="url(#p0c5a910bc1)" style="fill: #1f77b4; fill-opacity: 0.5; stroke: #000000; stroke-width: 0.26831; stroke-linejoin: miter"/>
   </g>
   <g id="patch_15">
    <path d="M 106.029872 307.584 
L 108.712968 307.584 
L 108.712968 54.144 
L 106.029872 54.144 
z
" clip-path="url(#p0c5a910bc1)" style="fill: #1f77b4; fill-opacity: 0.5; stroke: #000000; stroke-width: 0.26831; stroke-linejoin: miter"/>
   </g>
   <g id="patch_16">
    <path d="M 108.712968 307.584 
L 111.396063 307.584 
L 111.396063 72.213333 
L 108.712968 72.213333 
z
" clip-path="url(#p0c5a910bc1)" style="fill: #1f77b4; fill-opacity: 0.5; stroke: #000000; stroke-width: 0.26831; stroke-linejoin: miter"/>
   </g>
   <g id="patch_17">
    <path d="M 111.396063 307.584 
L 114.079159 307.584 
L 114.079159 56.490667 
L 111.396063 56.490667 
z
" clip-path="url(#p0c5a910bc1)" style="fill: #1f77b4; fill-opacity: 0.5; stroke: #000000; stroke-width: 0.26831; stroke-linejoin: miter"/>
   </g>
   <g id="patch_18">
    <path d="M 114.079159 307.584 
L 116.762254 307.584 
L 116.762254 54.378667 
L 114.079159 54.378667 
z
" clip-path="url(#p0c5a910bc1)" style="fill: #1f77b4; fill-opacity: 0.5; stroke: #000000; stroke-width: 0.26831; stroke-linejoin: miter"/>
   </g>
   <g id="patch_19">
    <path d="M 116.762254 307.584 
L 119.445349 307.584 
L 119.445349 60.010667 
L 116.762254 60.010667 
z
" clip-path="url(#p0c5a910bc1)" style="fill: #1f77b4; fill-opacity: 0.5; stroke: #000000; stroke-width: 0.26831; stroke-linejoin: miter"/>
   </g>
   <g id="patch_20">
    <path d="M 119.445349 307.584 
L 122.128445 307.584 
L 122.128445 80.661333 
L 119.445349 80.661333 
z
" clip-path="url(#p0c5a910bc1)" style="fill: #1f77b4; fill-opacity: 0.5; stroke: #000000; stroke-width: 0.26831; stroke-linejoin: miter"/>
   </g>
   <g id="patch_21">
    <path d="M 122.128445 307.584 
L 124.81154 307.584 
L 124.81154 72.448 
L 122.128445 72.448 
z
" clip-path="url(#p0c5a910bc1)" style="fill: #1f77b4; fill-opacity: 0.5; stroke: #000000; stroke-width: 0.26831; stroke-linejoin: miter"/>
   </g>
   <g id="patch_22">
    <path d="M 124.81154 307.584 
L 127.494636 307.584 
L 127.494636 70.101333 
L 124.81154 70.101333 
z
" clip-path="url(#p0c5a910bc1)" style="fill: #1f77b4; fill-opacity: 0.5; stroke: #000000; stroke-width: 0.26831; stroke-linejoin: miter"/>
   </g>
   <g id="patch_23">
    <path d="M 127.494636 307.584 
L 130.177731 307.584 
L 130.177731 83.477333 
L 127.494636 83.477333 
z
" clip-path="url(#p0c5a910bc1)" style="fill: #1f77b4; fill-opacity: 0.5; stroke: #000000; stroke-width: 0.26831; stroke-linejoin: miter"/>
   </g>
   <g id="patch_24">
    <path d="M 130.177731 307.584 
L 132.860826 307.584 
L 132.860826 121.258667 
L 130.177731 121.258667 
z
" clip-path="url(#p0c5a910bc1)" style="fill: #1f77b4; fill-opacity: 0.5; stroke: #000000; stroke-width: 0.26831; stroke-linejoin: miter"/>
   </g>
   <g id="patch_25">
    <path d="M 132.860826 307.584 
L 135.543922 307.584 
L 135.543922 104.128 
L 132.860826 104.128 
z
" clip-path="url(#p0c5a910bc1)" style="fill: #1f77b4; fill-opacity: 0.5; stroke: #000000; stroke-width: 0.26831; stroke-linejoin: miter"/>
   </g>
   <g id="patch_26">
    <path d="M 135.543922 307.584 
L 138.227017 307.584 
L 138.227017 110.464 
L 135.543922 110.464 
z
" clip-path="url(#p0c5a910bc1)" style="fill: #1f77b4; fill-opacity: 0.5; stroke: #000000; stroke-width: 0.26831; stroke-linejoin: miter"/>
   </g>
   <g id="patch_27">
    <path d="M 138.227017 307.584 
L 140.910113 307.584 
L 140.910113 112.576 
L 138.227017 112.576 
z
" clip-path="url(#p0c5a910bc1)" style="fill: #1f77b4; fill-opacity: 0.5; stroke: #000000; stroke-width: 0.26831; stroke-linejoin: miter"/>
   </g>
   <g id="patch_28">
    <path d="M 140.910113 307.584 
L 143.593208 307.584 
L 143.593208 133.930667 
L 140.910113 133.930667 
z
" clip-path="url(#p0c5a910bc1)" style="fill: #1f77b4; fill-opacity: 0.5; stroke: #000000; stroke-width: 0.26831; stroke-linejoin: miter"/>
   </g>
   <g id="patch_29">
    <path d="M 143.593208 307.584 
L 146.276304 307.584 
L 146.276304 139.562667 
L 143.593208 139.562667 
z
" clip-path="url(#p0c5a910bc1)" style="fill: #1f77b4; fill-opacity: 0.5; stroke: #000000; stroke-width: 0.26831; stroke-linejoin: miter"/>
   </g>
   <g id="patch_30">
    <path d="M 146.276304 307.584 
L 148.959399 307.584 
L 148.959399 171.712 
L 146.276304 171.712 
z
" clip-path="url(#p0c5a910bc1)" style="fill: #1f77b4; fill-opacity: 0.5; stroke: #000000; stroke-width: 0.26831; stroke-linejoin: miter"/>
   </g>
   <g id="patch_31">
    <path d="M 148.959399 307.584 
L 151.642494 307.584 
L 151.642494 161.856 
L 148.959399 161.856 
z
" clip-path="url(#p0c5a910bc1)" style="fill: #1f77b4; fill-opacity: 0.5; stroke: #000000; stroke-width: 0.26831; stroke-linejoin: miter"/>
   </g>
   <g id="patch_32">
    <path d="M 151.642494 307.584 
L 154.32559 307.584 
L 154.32559 183.68 
L 151.642494 183.68 
z
" clip-path="url(#p0c5a910bc1)" style="fill: #1f77b4; fill-opacity: 0.5; stroke: #000000; stroke-width: 0.26831; stroke-linejoin: miter"/>
   </g>
   <g id="patch_33">
    <path d="M 154.32559 307.584 
L 157.008685 307.584 
L 157.008685 182.506667 
L 154.32559 182.506667 
z
" clip-path="url(#p0c5a910bc1)" style="fill: #1f77b4; fill-opacity: 0.5; stroke: #000000; stroke-width: 0.26831; stroke-linejoin: miter"/>
   </g>
   <g id="patch_34">
    <path d="M 157.008685 307.584 
L 159.691781 307.584 
L 159.691781 200.576 
L 157.008685 200.576 
z
" clip-path="url(#p0c5a910bc1)" style="fill: #1f77b4; fill-opacity: 0.5; stroke: #000000; stroke-width: 0.26831; stroke-linejoin: miter"/>
   </g>
   <g id="patch_35">
    <path d="M 159.691781 307.584 
L 162.374876 307.584 
L 162.374876 213.482667 
L 159.691781 213.482667 
z
" clip-path="url(#p0c5a910bc1)" style="fill: #1f77b4; fill-opacity: 0.5; stroke: #000000; stroke-width: 0.26831; stroke-linejoin: miter"/>
   </g>
   <g id="patch_36">
    <path d="M 162.374876 307.584 
L 165.057971 307.584 
L 165.057971 218.645333 
L 162.374876 218.645333 
z
" clip-path="url(#p0c5a910bc1)" style="fill: #1f77b4; fill-opacity: 0.5; stroke: #000000; stroke-width: 0.26831; stroke-linejoin: miter"/>
   </g>
   <g id="patch_37">
    <path d="M 165.057971 307.584 
L 167.741067 307.584 
L 167.741067 218.88 
L 165.057971 218.88 
z
" clip-path="url(#p0c5a910bc1)" style="fill: #1f77b4; fill-opacity: 0.5; stroke: #000000; stroke-width: 0.26831; stroke-linejoin: miter"/>
   </g>
   <g id="patch_38">
    <path d="M 167.741067 307.584 
L 170.424162 307.584 
L 170.424162 237.888 
L 167.741067 237.888 
z
" clip-path="url(#p0c5a910bc1)" style="fill: #1f77b4; fill-opacity: 0.5; stroke: #000000; stroke-width: 0.26831; stroke-linejoin: miter"/>
   </g>
   <g id="patch_39">
    <path d="M 170.424162 307.584 
L 173.107258 307.584 
L 173.107258 222.4 
L 170.424162 222.4 
z
" clip-path="url(#p0c5a910bc1)" style="fill: #1f77b4; fill-opacity: 0.5; stroke: #000000; stroke-width: 0.26831; stroke-linejoin: miter"/>
   </g>
   <g id="patch_40">
    <path d="M 173.107258 307.584 
L 175.790353 307.584 
L 175.790353 242.816 
L 173.107258 242.816 
z
" clip-path="url(#p0c5a910bc1)" style="fill: #1f77b4; fill-opacity: 0.5; stroke: #000000; stroke-width: 0.26831; stroke-linejoin: miter"/>
   </g>
   <g id="patch_41">
    <path d="M 175.790353 307.584 
L 178.473449 307.584 
L 178.473449 253.376 
L 175.790353 253.376 
z
" clip-path="url(#p0c5a910bc1)" style="fill: #1f77b4; fill-opacity: 0.5; stroke: #000000; stroke-width: 0.26831; stroke-linejoin: miter"/>
   </g>
   <g id="patch_42">
    <path d="M 178.473449 307.584 
L 181.156544 307.584 
L 181.156544 264.874667 
L 178.473449 264.874667 
z
" clip-path="url(#p0c5a910bc1)" style="fill: #1f77b4; fill-opacity: 0.5; stroke: #000000; stroke-width: 0.26831; stroke-linejoin: miter"/>
   </g>
   <g id="patch_43">
    <path d="M 181.156544 307.584 
L 183.839639 307.584 
L 183.839639 260.885333 
L 181.156544 260.885333 
z
" clip-path="url(#p0c5a910bc1)" style="fill: #1f77b4; fill-opacity: 0.5; stroke: #000000; stroke-width: 0.26831; stroke-linejoin: miter"/>
   </g>
   <g id="patch_44">
    <path d="M 183.839639 307.584 
L 186.522735 307.584 
L 186.522735 256.192 
L 183.839639 256.192 
z
" clip-path="url(#p0c5a910bc1)" style="fill: #1f77b4; fill-opacity: 0.5; stroke: #000000; stroke-width: 0.26831; stroke-linejoin: miter"/>
   </g>
   <g id="patch_45">
    <path d="M 186.522735 307.584 
L 189.20583 307.584 
L 189.20583 269.568 
L 186.522735 269.568 
z
" clip-path="url(#p0c5a910bc1)" style="fill: #1f77b4; fill-opacity: 0.5; stroke: #000000; stroke-width: 0.26831; stroke-linejoin: miter"/>
   </g>
   <g id="patch_46">
    <path d="M 189.20583 307.584 
L 191.888926 307.584 
L 191.888926 263.232 
L 189.20583 263.232 
z
" clip-path="url(#p0c5a910bc1)" style="fill: #1f77b4; fill-opacity: 0.5; stroke: #000000; stroke-width: 0.26831; stroke-linejoin: miter"/>
   </g>
   <g id="patch_47">
    <path d="M 191.888926 307.584 
L 194.572021 307.584 
L 194.572021 280.597333 
L 191.888926 280.597333 
z
" clip-path="url(#p0c5a910bc1)" style="fill: #1f77b4; fill-opacity: 0.5; stroke: #000000; stroke-width: 0.26831; stroke-linejoin: miter"/>
   </g>
   <g id="patch_48">
    <path d="M 194.572021 307.584 
L 197.255116 307.584 
L 197.255116 281.536 
L 194.572021 281.536 
z
" clip-path="url(#p0c5a910bc1)" style="fill: #1f77b4; fill-opacity: 0.5; stroke: #000000; stroke-width: 0.26831; stroke-linejoin: miter"/>
   </g>
   <g id="patch_49">
    <path d="M 197.255116 307.584 
L 199.938212 307.584 
L 199.938212 285.525333 
L 197.255116 285.525333 
z
" clip-path="url(#p0c5a910bc1)" style="fill: #1f77b4; fill-opacity: 0.5; stroke: #000000; stroke-width: 0.26831; stroke-linejoin: miter"/>
   </g>
   <g id="patch_50">
    <path d="M 199.938212 307.584 
L 202.621307 307.584 
L 202.621307 284.117333 
L 199.938212 284.117333 
z
" clip-path="url(#p0c5a910bc1)" style="fill: #1f77b4; fill-opacity: 0.5; stroke: #000000; stroke-width: 0.26831; stroke-linejoin: miter"/>
   </g>
   <g id="patch_51">
    <path d="M 202.621307 307.584 
L 205.304403 307.584 
L 205.304403 290.688 
L 202.621307 290.688 
z
" clip-path="url(#p0c5a910bc1)" style="fill: #1f77b4; fill-opacity: 0.5; stroke: #000000; stroke-width: 0.26831; stroke-linejoin: miter"/>
   </g>
   <g id="patch_52">
    <path d="M 205.304403 307.584 
L 207.987498 307.584 
L 207.987498 284.821333 
L 205.304403 284.821333 
z
" clip-path="url(#p0c5a910bc1)" style="fill: #1f77b4; fill-opacity: 0.5; stroke: #000000; stroke-width: 0.26831; stroke-linejoin: miter"/>
   </g>
   <g id="patch_53">
    <path d="M 207.987498 307.584 
L 210.670594 307.584 
L 210.670594 293.504 
L 207.987498 293.504 
z
" clip-path="url(#p0c5a910bc1)" style="fill: #1f77b4; fill-opacity: 0.5; stroke: #000000; stroke-width: 0.26831; stroke-linejoin: miter"/>
   </g>
   <g id="patch_54">
    <path d="M 210.670594 307.584 
L 213.353689 307.584 
L 213.353689 295.381333 
L 210.670594 295.381333 
z
" clip-path="url(#p0c5a910bc1)" style="fill: #1f77b4; fill-opacity: 0.5; stroke: #000000; stroke-width: 0.26831; stroke-linejoin: miter"/>
   </g>
   <g id="patch_55">
    <path d="M 213.353689 307.584 
L 216.036784 307.584 
L 216.036784 297.024 
L 213.353689 297.024 
z
" clip-path="url(#p0c5a910bc1)" style="fill: #1f77b4; fill-opacity: 0.5; stroke: #000000; stroke-width: 0.26831; stroke-linejoin: miter"/>
   </g>
   <g id="patch_56">
    <path d="M 216.036784 307.584 
L 218.71988 307.584 
L 218.71988 296.085333 
L 216.036784 296.085333 
z
" clip-path="url(#p0c5a910bc1)" style="fill: #1f77b4; fill-opacity: 0.5; stroke: #000000; stroke-width: 0.26831; stroke-linejoin: miter"/>
   </g>
   <g id="patch_57">
    <path d="M 218.71988 307.584 
L 221.402975 307.584 
L 221.402975 297.258667 
L 218.71988 297.258667 
z
" clip-path="url(#p0c5a910bc1)" style="fill: #1f77b4; fill-opacity: 0.5; stroke: #000000; stroke-width: 0.26831; stroke-linejoin: miter"/>
   </g>
   <g id="patch_58">
    <path d="M 221.402975 307.584 
L 224.086071 307.584 
L 224.086071 300.544 
L 221.402975 300.544 
z
" clip-path="url(#p0c5a910bc1)" style="fill: #1f77b4; fill-opacity: 0.5; stroke: #000000; stroke-width: 0.26831; stroke-linejoin: miter"/>
   </g>
   <g id="patch_59">
    <path d="M 224.086071 307.584 
L 226.769166 307.584 
L 226.769166 300.074667 
L 224.086071 300.074667 
z
" clip-path="url(#p0c5a910bc1)" style="fill: #1f77b4; fill-opacity: 0.5; stroke: #000000; stroke-width: 0.26831; stroke-linejoin: miter"/>
   </g>
   <g id="patch_60">
    <path d="M 226.769166 307.584 
L 229.452261 307.584 
L 229.452261 300.074667 
L 226.769166 300.074667 
z
" clip-path="url(#p0c5a910bc1)" style="fill: #1f77b4; fill-opacity: 0.5; stroke: #000000; stroke-width: 0.26831; stroke-linejoin: miter"/>
   </g>
   <g id="patch_61">
    <path d="M 229.452261 307.584 
L 232.135357 307.584 
L 232.135357 304.533333 
L 229.452261 304.533333 
z
" clip-path="url(#p0c5a910bc1)" style="fill: #1f77b4; fill-opacity: 0.5; stroke: #000000; stroke-width: 0.26831; stroke-linejoin: miter"/>
   </g>
   <g id="patch_62">
    <path d="M 232.135357 307.584 
L 234.818452 307.584 
L 234.818452 302.186667 
L 232.135357 302.186667 
z
" clip-path="url(#p0c5a910bc1)" style="fill: #1f77b4; fill-opacity: 0.5; stroke: #000000; stroke-width: 0.26831; stroke-linejoin: miter"/>
   </g>
   <g id="patch_63">
    <path d="M 234.818452 307.584 
L 237.501548 307.584 
L 237.501548 300.074667 
L 234.818452 300.074667 
z
" clip-path="url(#p0c5a910bc1)" style="fill: #1f77b4; fill-opacity: 0.5; stroke: #000000; stroke-width: 0.26831; stroke-linejoin: miter"/>
   </g>
   <g id="patch_64">
    <path d="M 237.501548 307.584 
L 240.184643 307.584 
L 240.184643 303.594667 
L 237.501548 303.594667 
z
" clip-path="url(#p0c5a910bc1)" style="fill: #1f77b4; fill-opacity: 0.5; stroke: #000000; stroke-width: 0.26831; stroke-linejoin: miter"/>
   </g>
   <g id="patch_65">
    <path d="M 240.184643 307.584 
L 242.867739 307.584 
L 242.867739 303.829333 
L 240.184643 303.829333 
z
" clip-path="url(#p0c5a910bc1)" style="fill: #1f77b4; fill-opacity: 0.5; stroke: #000000; stroke-width: 0.26831; stroke-linejoin: miter"/>
   </g>
   <g id="patch_66">
    <path d="M 242.867739 307.584 
L 245.550834 307.584 
L 245.550834 302.656 
L 242.867739 302.656 
z
" clip-path="url(#p0c5a910bc1)" style="fill: #1f77b4; fill-opacity: 0.5; stroke: #000000; stroke-width: 0.26831; stroke-linejoin: miter"/>
   </g>
   <g id="patch_67">
    <path d="M 245.550834 307.584 
L 248.233929 307.584 
L 248.233929 306.410667 
L 245.550834 306.410667 
z
" clip-path="url(#p0c5a910bc1)" style="fill: #1f77b4; fill-opacity: 0.5; stroke: #000000; stroke-width: 0.26831; stroke-linejoin: miter"/>
   </g>
   <g id="patch_68">
    <path d="M 248.233929 307.584 
L 250.917025 307.584 
L 250.917025 303.36 
L 248.233929 303.36 
z
" clip-path="url(#p0c5a910bc1)" style="fill: #1f77b4; fill-opacity: 0.5; stroke: #000000; stroke-width: 0.26831; stroke-linejoin: miter"/>
   </g>
   <g id="patch_69">
    <path d="M 250.917025 307.584 
L 253.60012 307.584 
L 253.60012 306.410667 
L 250.917025 306.410667 
z
" clip-path="url(#p0c5a910bc1)" style="fill: #1f77b4; fill-opacity: 0.5; stroke: #000000; stroke-width: 0.26831; stroke-linejoin: miter"/>
   </g>
   <g id="patch_70">
    <path d="M 253.60012 307.584 
L 256.283216 307.584 
L 256.283216 305.237333 
L 253.60012 305.237333 
z
" clip-path="url(#p0c5a910bc1)" style="fill: #1f77b4; fill-opacity: 0.5; stroke: #000000; stroke-width: 0.26831; stroke-linejoin: miter"/>
   </g>
   <g id="patch_71">
    <path d="M 256.283216 307.584 
L 258.966311 307.584 
L 258.966311 306.88 
L 256.283216 306.88 
z
" clip-path="url(#p0c5a910bc1)" style="fill: #1f77b4; fill-opacity: 0.5; stroke: #000000; stroke-width: 0.26831; stroke-linejoin: miter"/>
   </g>
   <g id="patch_72">
    <path d="M 258.966311 307.584 
L 261.649406 307.584 
L 261.649406 303.594667 
L 258.966311 303.594667 
z
" clip-path="url(#p0c5a910bc1)" style="fill: #1f77b4; fill-opacity: 0.5; stroke: #000000; stroke-width: 0.26831; stroke-linejoin: miter"/>
   </g>
   <g id="patch_73">
    <path d="M 261.649406 307.584 
L 264.332502 307.584 
L 264.332502 306.645333 
L 261.649406 306.645333 
z
" clip-path="url(#p0c5a910bc1)" style="fill: #1f77b4; fill-opacity: 0.5; stroke: #000000; stroke-width: 0.26831; stroke-linejoin: miter"/>
   </g>
   <g id="patch_74">
    <path d="M 264.332502 307.584 
L 267.015597 307.584 
L 267.015597 307.114667 
L 264.332502 307.114667 
z
" clip-path="url(#p0c5a910bc1)" style="fill: #1f77b4; fill-opacity: 0.5; stroke: #000000; stroke-width: 0.26831; stroke-linejoin: miter"/>
   </g>
   <g id="patch_75">
    <path d="M 267.015597 307.584 
L 269.698693 307.584 
L 269.698693 306.176 
L 267.015597 306.176 
z
" clip-path="url(#p0c5a910bc1)" style="fill: #1f77b4; fill-opacity: 0.5; stroke: #000000; stroke-width: 0.26831; stroke-linejoin: miter"/>
   </g>
   <g id="patch_76">
    <path d="M 269.698693 307.584 
L 272.381788 307.584 
L 272.381788 306.88 
L 269.698693 306.88 
z
" clip-path="url(#p0c5a910bc1)" style="fill: #1f77b4; fill-opacity: 0.5; stroke: #000000; stroke-width: 0.26831; stroke-linejoin: miter"/>
   </g>
   <g id="patch_77">
    <path d="M 272.381788 307.584 
L 275.064884 307.584 
L 275.064884 302.656 
L 272.381788 302.656 
z
" clip-path="url(#p0c5a910bc1)" style="fill: #1f77b4; fill-opacity: 0.5; stroke: #000000; stroke-width: 0.26831; stroke-linejoin: miter"/>
   </g>
   <g id="patch_78">
    <path d="M 275.064884 307.584 
L 277.747979 307.584 
L 277.747979 307.349333 
L 275.064884 307.349333 
z
" clip-path="url(#p0c5a910bc1)" style="fill: #1f77b4; fill-opacity: 0.5; stroke: #000000; stroke-width: 0.26831; stroke-linejoin: miter"/>
   </g>
   <g id="patch_79">
    <path d="M 277.747979 307.584 
L 280.431074 307.584 
L 280.431074 305.706667 
L 277.747979 305.706667 
z
" clip-path="url(#p0c5a910bc1)" style="fill: #1f77b4; fill-opacity: 0.5; stroke: #000000; stroke-width: 0.26831; stroke-linejoin: miter"/>
   </g>
   <g id="patch_80">
    <path d="M 280.431074 307.584 
L 283.11417 307.584 
L 283.11417 307.349333 
L 280.431074 307.349333 
z
" clip-path="url(#p0c5a910bc1)" style="fill: #1f77b4; fill-opacity: 0.5; stroke: #000000; stroke-width: 0.26831; stroke-linejoin: miter"/>
   </g>
   <g id="patch_81">
    <path d="M 283.11417 307.584 
L 285.797265 307.584 
L 285.797265 307.349333 
L 283.11417 307.349333 
z
" clip-path="url(#p0c5a910bc1)" style="fill: #1f77b4; fill-opacity: 0.5; stroke: #000000; stroke-width: 0.26831; stroke-linejoin: miter"/>
   </g>
   <g id="patch_82">
    <path d="M 285.797265 307.584 
L 288.480361 307.584 
L 288.480361 305.002667 
L 285.797265 305.002667 
z
" clip-path="url(#p0c5a910bc1)" style="fill: #1f77b4; fill-opacity: 0.5; stroke: #000000; stroke-width: 0.26831; stroke-linejoin: miter"/>
   </g>
   <g id="patch_83">
    <path d="M 288.480361 307.584 
L 291.163456 307.584 
L 291.163456 307.349333 
L 288.480361 307.349333 
z
" clip-path="url(#p0c5a910bc1)" style="fill: #1f77b4; fill-opacity: 0.5; stroke: #000000; stroke-width: 0.26831; stroke-linejoin: miter"/>
   </g>
   <g id="patch_84">
    <path d="M 291.163456 307.584 
L 293.846551 307.584 
L 293.846551 307.584 
L 291.163456 307.584 
z
" clip-path="url(#p0c5a910bc1)" style="fill: #1f77b4; fill-opacity: 0.5; stroke: #000000; stroke-width: 0.26831; stroke-linejoin: miter"/>
   </g>
   <g id="patch_85">
    <path d="M 293.846551 307.584 
L 296.529647 307.584 
L 296.529647 306.88 
L 293.846551 306.88 
z
" clip-path="url(#p0c5a910bc1)" style="fill: #1f77b4; fill-opacity: 0.5; stroke: #000000; stroke-width: 0.26831; stroke-linejoin: miter"/>
   </g>
   <g id="patch_86">
    <path d="M 296.529647 307.584 
L 299.212742 307.584 
L 299.212742 307.114667 
L 296.529647 307.114667 
z
" clip-path="url(#p0c5a910bc1)" style="fill: #1f77b4; fill-opacity: 0.5; stroke: #000000; stroke-width: 0.26831; stroke-linejoin: miter"/>
   </g>
   <g id="patch_87">
    <path d="M 299.212742 307.584 
L 301.895838 307.584 
L 301.895838 306.410667 
L 299.212742 306.410667 
z
" clip-path="url(#p0c5a910bc1)" style="fill: #1f77b4; fill-opacity: 0.5; stroke: #000000; stroke-width: 0.26831; stroke-linejoin: miter"/>
   </g>
   <g id="patch_88">
    <path d="M 301.895838 307.584 
L 304.578933 307.584 
L 304.578933 306.88 
L 301.895838 306.88 
z
" clip-path="url(#p0c5a910bc1)" style="fill: #1f77b4; fill-opacity: 0.5; stroke: #000000; stroke-width: 0.26831; stroke-linejoin: miter"/>
   </g>
   <g id="patch_89">
    <path d="M 304.578933 307.584 
L 307.262029 307.584 
L 307.262029 307.584 
L 304.578933 307.584 
z
" clip-path="url(#p0c5a910bc1)" style="fill: #1f77b4; fill-opacity: 0.5; stroke: #000000; stroke-width: 0.26831; stroke-linejoin: miter"/>
   </g>
   <g id="patch_90">
    <path d="M 307.262029 307.584 
L 309.945124 307.584 
L 309.945124 307.584 
L 307.262029 307.584 
z
" clip-path="url(#p0c5a910bc1)" style="fill: #1f77b4; fill-opacity: 0.5; stroke: #000000; stroke-width: 0.26831; stroke-linejoin: miter"/>
   </g>
   <g id="patch_91">
    <path d="M 309.945124 307.584 
L 312.628219 307.584 
L 312.628219 307.584 
L 309.945124 307.584 
z
" clip-path="url(#p0c5a910bc1)" style="fill: #1f77b4; fill-opacity: 0.5; stroke: #000000; stroke-width: 0.26831; stroke-linejoin: miter"/>
   </g>
   <g id="patch_92">
    <path d="M 312.628219 307.584 
L 315.311315 307.584 
L 315.311315 305.941333 
L 312.628219 305.941333 
z
" clip-path="url(#p0c5a910bc1)" style="fill: #1f77b4; fill-opacity: 0.5; stroke: #000000; stroke-width: 0.26831; stroke-linejoin: miter"/>
   </g>
   <g id="patch_93">
    <path d="M 315.311315 307.584 
L 317.99441 307.584 
L 317.99441 303.829333 
L 315.311315 303.829333 
z
" clip-path="url(#p0c5a910bc1)" style="fill: #1f77b4; fill-opacity: 0.5; stroke: #000000; stroke-width: 0.26831; stroke-linejoin: miter"/>
   </g>
   <g id="patch_94">
    <path d="M 317.99441 307.584 
L 320.677506 307.584 
L 320.677506 306.88 
L 317.99441 306.88 
z
" clip-path="url(#p0c5a910bc1)" style="fill: #1f77b4; fill-opacity: 0.5; stroke: #000000; stroke-width: 0.26831; stroke-linejoin: miter"/>
   </g>
   <g id="patch_95">
    <path d="M 320.677506 307.584 
L 323.360601 307.584 
L 323.360601 307.584 
L 320.677506 307.584 
z
" clip-path="url(#p0c5a910bc1)" style="fill: #1f77b4; fill-opacity: 0.5; stroke: #000000; stroke-width: 0.26831; stroke-linejoin: miter"/>
   </g>
   <g id="patch_96">
    <path d="M 323.360601 307.584 
L 326.043696 307.584 
L 326.043696 307.114667 
L 323.360601 307.114667 
z
" clip-path="url(#p0c5a910bc1)" style="fill: #1f77b4; fill-opacity: 0.5; stroke: #000000; stroke-width: 0.26831; stroke-linejoin: miter"/>
   </g>
   <g id="patch_97">
    <path d="M 326.043696 307.584 
L 328.726792 307.584 
L 328.726792 306.645333 
L 326.043696 306.645333 
z
" clip-path="url(#p0c5a910bc1)" style="fill: #1f77b4; fill-opacity: 0.5; stroke: #000000; stroke-width: 0.26831; stroke-linejoin: miter"/>
   </g>
   <g id="patch_98">
    <path d="M 328.726792 307.584 
L 331.409887 307.584 
L 331.409887 306.645333 
L 328.726792 306.645333 
z
" clip-path="url(#p0c5a910bc1)" style="fill: #1f77b4; fill-opacity: 0.5; stroke: #000000; stroke-width: 0.26831; stroke-linejoin: miter"/>
   </g>
   <g id="patch_99">
    <path d="M 331.409887 307.584 
L 334.092983 307.584 
L 334.092983 306.88 
L 331.409887 306.88 
z
" clip-path="url(#p0c5a910bc1)" style="fill: #1f77b4; fill-opacity: 0.5; stroke: #000000; stroke-width: 0.26831; stroke-linejoin: miter"/>
   </g>
   <g id="patch_100">
    <path d="M 334.092983 307.584 
L 336.776078 307.584 
L 336.776078 307.584 
L 334.092983 307.584 
z
" clip-path="url(#p0c5a910bc1)" style="fill: #1f77b4; fill-opacity: 0.5; stroke: #000000; stroke-width: 0.26831; stroke-linejoin: miter"/>
   </g>
   <g id="patch_101">
    <path d="M 336.776078 307.584 
L 339.459174 307.584 
L 339.459174 307.584 
L 336.776078 307.584 
z
" clip-path="url(#p0c5a910bc1)" style="fill: #1f77b4; fill-opacity: 0.5; stroke: #000000; stroke-width: 0.26831; stroke-linejoin: miter"/>
   </g>
   <g id="patch_102">
    <path d="M 339.459174 307.584 
L 342.142269 307.584 
L 342.142269 307.584 
L 339.459174 307.584 
z
" clip-path="url(#p0c5a910bc1)" style="fill: #1f77b4; fill-opacity: 0.5; stroke: #000000; stroke-width: 0.26831; stroke-linejoin: miter"/>
   </g>
   <g id="patch_103">
    <path d="M 342.142269 307.584 
L 344.825364 307.584 
L 344.825364 307.584 
L 342.142269 307.584 
z
" clip-path="url(#p0c5a910bc1)" style="fill: #1f77b4; fill-opacity: 0.5; stroke: #000000; stroke-width: 0.26831; stroke-linejoin: miter"/>
   </g>
   <g id="patch_104">
    <path d="M 344.825364 307.584 
L 347.50846 307.584 
L 347.50846 307.584 
L 344.825364 307.584 
z
" clip-path="url(#p0c5a910bc1)" style="fill: #1f77b4; fill-opacity: 0.5; stroke: #000000; stroke-width: 0.26831; stroke-linejoin: miter"/>
   </g>
   <g id="patch_105">
    <path d="M 347.50846 307.584 
L 350.191555 307.584 
L 350.191555 307.349333 
L 347.50846 307.349333 
z
" clip-path="url(#p0c5a910bc1)" style="fill: #1f77b4; fill-opacity: 0.5; stroke: #000000; stroke-width: 0.26831; stroke-linejoin: miter"/>
   </g>
   <g id="patch_106">
    <path d="M 350.191555 307.584 
L 352.874651 307.584 
L 352.874651 307.584 
L 350.191555 307.584 
z
" clip-path="url(#p0c5a910bc1)" style="fill: #1f77b4; fill-opacity: 0.5; stroke: #000000; stroke-width: 0.26831; stroke-linejoin: miter"/>
   </g>
   <g id="patch_107">
    <path d="M 352.874651 307.584 
L 355.557746 307.584 
L 355.557746 307.349333 
L 352.874651 307.349333 
z
" clip-path="url(#p0c5a910bc1)" style="fill: #1f77b4; fill-opacity: 0.5; stroke: #000000; stroke-width: 0.26831; stroke-linejoin: miter"/>
   </g>
   <g id="patch_108">
    <path d="M 355.557746 307.584 
L 358.240841 307.584 
L 358.240841 306.88 
L 355.557746 306.88 
z
" clip-path="url(#p0c5a910bc1)" style="fill: #1f77b4; fill-opacity: 0.5; stroke: #000000; stroke-width: 0.26831; stroke-linejoin: miter"/>
   </g>
   <g id="patch_109">
    <path d="M 358.240841 307.584 
L 360.923937 307.584 
L 360.923937 307.584 
L 358.240841 307.584 
z
" clip-path="url(#p0c5a910bc1)" style="fill: #1f77b4; fill-opacity: 0.5; stroke: #000000; stroke-width: 0.26831; stroke-linejoin: miter"/>
   </g>
   <g id="patch_110">
    <path d="M 360.923937 307.584 
L 363.607032 307.584 
L 363.607032 307.584 
L 360.923937 307.584 
z
" clip-path="url(#p0c5a910bc1)" style="fill: #1f77b4; fill-opacity: 0.5; stroke: #000000; stroke-width: 0.26831; stroke-linejoin: miter"/>
   </g>
   <g id="patch_111">
    <path d="M 363.607032 307.584 
L 366.290128 307.584 
L 366.290128 304.768 
L 363.607032 304.768 
z
" clip-path="url(#p0c5a910bc1)" style="fill: #1f77b4; fill-opacity: 0.5; stroke: #000000; stroke-width: 0.26831; stroke-linejoin: miter"/>
   </g>
   <g id="patch_112">
    <path d="M 366.290128 307.584 
L 368.973223 307.584 
L 368.973223 307.349333 
L 366.290128 307.349333 
z
" clip-path="url(#p0c5a910bc1)" style="fill: #1f77b4; fill-opacity: 0.5; stroke: #000000; stroke-width: 0.26831; stroke-linejoin: miter"/>
   </g>
   <g id="patch_113">
    <path d="M 368.973223 307.584 
L 371.656319 307.584 
L 371.656319 307.584 
L 368.973223 307.584 
z
" clip-path="url(#p0c5a910bc1)" style="fill: #1f77b4; fill-opacity: 0.5; stroke: #000000; stroke-width: 0.26831; stroke-linejoin: miter"/>
   </g>
   <g id="patch_114">
    <path d="M 371.656319 307.584 
L 374.339414 307.584 
L 374.339414 307.584 
L 371.656319 307.584 
z
" clip-path="url(#p0c5a910bc1)" style="fill: #1f77b4; fill-opacity: 0.5; stroke: #000000; stroke-width: 0.26831; stroke-linejoin: miter"/>
   </g>
   <g id="patch_115">
    <path d="M 374.339414 307.584 
L 377.022509 307.584 
L 377.022509 307.584 
L 374.339414 307.584 
z
" clip-path="url(#p0c5a910bc1)" style="fill: #1f77b4; fill-opacity: 0.5; stroke: #000000; stroke-width: 0.26831; stroke-linejoin: miter"/>
   </g>
   <g id="patch_116">
    <path d="M 377.022509 307.584 
L 379.705605 307.584 
L 379.705605 306.176 
L 377.022509 306.176 
z
" clip-path="url(#p0c5a910bc1)" style="fill: #1f77b4; fill-opacity: 0.5; stroke: #000000; stroke-width: 0.26831; stroke-linejoin: miter"/>
   </g>
   <g id="patch_117">
    <path d="M 379.705605 307.584 
L 382.3887 307.584 
L 382.3887 307.584 
L 379.705605 307.584 
z
" clip-path="url(#p0c5a910bc1)" style="fill: #1f77b4; fill-opacity: 0.5; stroke: #000000; stroke-width: 0.26831; stroke-linejoin: miter"/>
   </g>
   <g id="patch_118">
    <path d="M 382.3887 307.584 
L 385.071796 307.584 
L 385.071796 307.584 
L 382.3887 307.584 
z
" clip-path="url(#p0c5a910bc1)" style="fill: #1f77b4; fill-opacity: 0.5; stroke: #000000; stroke-width: 0.26831; stroke-linejoin: miter"/>
   </g>
   <g id="patch_119">
    <path d="M 385.071796 307.584 
L 387.754891 307.584 
L 387.754891 307.349333 
L 385.071796 307.349333 
z
" clip-path="url(#p0c5a910bc1)" style="fill: #1f77b4; fill-opacity: 0.5; stroke: #000000; stroke-width: 0.26831; stroke-linejoin: miter"/>
   </g>
   <g id="patch_120">
    <path d="M 387.754891 307.584 
L 390.437986 307.584 
L 390.437986 307.584 
L 387.754891 307.584 
z
" clip-path="url(#p0c5a910bc1)" style="fill: #1f77b4; fill-opacity: 0.5; stroke: #000000; stroke-width: 0.26831; stroke-linejoin: miter"/>
   </g>
   <g id="patch_121">
    <path d="M 390.437986 307.584 
L 393.121082 307.584 
L 393.121082 307.584 
L 390.437986 307.584 
z
" clip-path="url(#p0c5a910bc1)" style="fill: #1f77b4; fill-opacity: 0.5; stroke: #000000; stroke-width: 0.26831; stroke-linejoin: miter"/>
   </g>
   <g id="patch_122">
    <path d="M 393.121082 307.584 
L 395.804177 307.584 
L 395.804177 307.349333 
L 393.121082 307.349333 
z
" clip-path="url(#p0c5a910bc1)" style="fill: #1f77b4; fill-opacity: 0.5; stroke: #000000; stroke-width: 0.26831; stroke-linejoin: miter"/>
   </g>
   <g id="patch_123">
    <path d="M 395.804177 307.584 
L 398.487273 307.584 
L 398.487273 307.349333 
L 395.804177 307.349333 
z
" clip-path="url(#p0c5a910bc1)" style="fill: #1f77b4; fill-opacity: 0.5; stroke: #000000; stroke-width: 0.26831; stroke-linejoin: miter"/>
   </g>
   <g id="matplotlib.axis_1">
    <g id="xtick_1">
     <g id="line2d_1">
      <defs>
       <path id="m346df18e95" d="M 0 0 
L 0 3.5 
" style="stroke: #000000; stroke-width: 0.8"/>
      </defs>
      <g>
       <use xlink:href="#m346df18e95" x="67.629137" y="307.584" style="stroke: #000000; stroke-width: 0.8"/>
      </g>
     </g>
     <g id="text_1">
      <!-- 0 -->
      <g transform="translate(64.447887 322.182437) scale(0.1 -0.1)">
       <defs>
        <path id="DejaVuSans-30" d="M 2034 4250 
Q 1547 4250 1301 3770 
Q 1056 3291 1056 2328 
Q 1056 1369 1301 889 
Q 1547 409 2034 409 
Q 2525 409 2770 889 
Q 3016 1369 3016 2328 
Q 3016 3291 2770 3770 
Q 2525 4250 2034 4250 
z
M 2034 4750 
Q 2819 4750 3233 4129 
Q 3647 3509 3647 2328 
Q 3647 1150 3233 529 
Q 2819 -91 2034 -91 
Q 1250 -91 836 529 
Q 422 1150 422 2328 
Q 422 3509 836 4129 
Q 1250 4750 2034 4750 
z
" transform="scale(0.015625)"/>
       </defs>
       <use xlink:href="#DejaVuSans-30"/>
      </g>
     </g>
    </g>
    <g id="xtick_2">
     <g id="line2d_2">
      <g>
       <use xlink:href="#m346df18e95" x="108.986404" y="307.584" style="stroke: #000000; stroke-width: 0.8"/>
      </g>
     </g>
     <g id="text_2">
      <!-- 100000 -->
      <g transform="translate(89.898904 322.182437) scale(0.1 -0.1)">
       <defs>
        <path id="DejaVuSans-31" d="M 794 531 
L 1825 531 
L 1825 4091 
L 703 3866 
L 703 4441 
L 1819 4666 
L 2450 4666 
L 2450 531 
L 3481 531 
L 3481 0 
L 794 0 
L 794 531 
z
" transform="scale(0.015625)"/>
       </defs>
       <use xlink:href="#DejaVuSans-31"/>
       <use xlink:href="#DejaVuSans-30" transform="translate(63.623047 0)"/>
       <use xlink:href="#DejaVuSans-30" transform="translate(127.246094 0)"/>
       <use xlink:href="#DejaVuSans-30" transform="translate(190.869141 0)"/>
       <use xlink:href="#DejaVuSans-30" transform="translate(254.492188 0)"/>
       <use xlink:href="#DejaVuSans-30" transform="translate(318.115234 0)"/>
      </g>
     </g>
    </g>
    <g id="xtick_3">
     <g id="line2d_3">
      <g>
       <use xlink:href="#m346df18e95" x="150.343671" y="307.584" style="stroke: #000000; stroke-width: 0.8"/>
      </g>
     </g>
     <g id="text_3">
      <!-- 200000 -->
      <g transform="translate(131.256171 322.182437) scale(0.1 -0.1)">
       <defs>
        <path id="DejaVuSans-32" d="M 1228 531 
L 3431 531 
L 3431 0 
L 469 0 
L 469 531 
Q 828 903 1448 1529 
Q 2069 2156 2228 2338 
Q 2531 2678 2651 2914 
Q 2772 3150 2772 3378 
Q 2772 3750 2511 3984 
Q 2250 4219 1831 4219 
Q 1534 4219 1204 4116 
Q 875 4013 500 3803 
L 500 4441 
Q 881 4594 1212 4672 
Q 1544 4750 1819 4750 
Q 2544 4750 2975 4387 
Q 3406 4025 3406 3419 
Q 3406 3131 3298 2873 
Q 3191 2616 2906 2266 
Q 2828 2175 2409 1742 
Q 1991 1309 1228 531 
z
" transform="scale(0.015625)"/>
       </defs>
       <use xlink:href="#DejaVuSans-32"/>
       <use xlink:href="#DejaVuSans-30" transform="translate(63.623047 0)"/>
       <use xlink:href="#DejaVuSans-30" transform="translate(127.246094 0)"/>
       <use xlink:href="#DejaVuSans-30" transform="translate(190.869141 0)"/>
       <use xlink:href="#DejaVuSans-30" transform="translate(254.492188 0)"/>
       <use xlink:href="#DejaVuSans-30" transform="translate(318.115234 0)"/>
      </g>
     </g>
    </g>
    <g id="xtick_4">
     <g id="line2d_4">
      <g>
       <use xlink:href="#m346df18e95" x="191.700938" y="307.584" style="stroke: #000000; stroke-width: 0.8"/>
      </g>
     </g>
     <g id="text_4">
      <!-- 300000 -->
      <g transform="translate(172.613438 322.182437) scale(0.1 -0.1)">
       <defs>
        <path id="DejaVuSans-33" d="M 2597 2516 
Q 3050 2419 3304 2112 
Q 3559 1806 3559 1356 
Q 3559 666 3084 287 
Q 2609 -91 1734 -91 
Q 1441 -91 1130 -33 
Q 819 25 488 141 
L 488 750 
Q 750 597 1062 519 
Q 1375 441 1716 441 
Q 2309 441 2620 675 
Q 2931 909 2931 1356 
Q 2931 1769 2642 2001 
Q 2353 2234 1838 2234 
L 1294 2234 
L 1294 2753 
L 1863 2753 
Q 2328 2753 2575 2939 
Q 2822 3125 2822 3475 
Q 2822 3834 2567 4026 
Q 2313 4219 1838 4219 
Q 1578 4219 1281 4162 
Q 984 4106 628 3988 
L 628 4550 
Q 988 4650 1302 4700 
Q 1616 4750 1894 4750 
Q 2613 4750 3031 4423 
Q 3450 4097 3450 3541 
Q 3450 3153 3228 2886 
Q 3006 2619 2597 2516 
z
" transform="scale(0.015625)"/>
       </defs>
       <use xlink:href="#DejaVuSans-33"/>
       <use xlink:href="#DejaVuSans-30" transform="translate(63.623047 0)"/>
       <use xlink:href="#DejaVuSans-30" transform="translate(127.246094 0)"/>
       <use xlink:href="#DejaVuSans-30" transform="translate(190.869141 0)"/>
       <use xlink:href="#DejaVuSans-30" transform="translate(254.492188 0)"/>
       <use xlink:href="#DejaVuSans-30" transform="translate(318.115234 0)"/>
      </g>
     </g>
    </g>
    <g id="xtick_5">
     <g id="line2d_5">
      <g>
       <use xlink:href="#m346df18e95" x="233.058205" y="307.584" style="stroke: #000000; stroke-width: 0.8"/>
      </g>
     </g>
     <g id="text_5">
      <!-- 400000 -->
      <g transform="translate(213.970705 322.182437) scale(0.1 -0.1)">
       <defs>
        <path id="DejaVuSans-34" d="M 2419 4116 
L 825 1625 
L 2419 1625 
L 2419 4116 
z
M 2253 4666 
L 3047 4666 
L 3047 1625 
L 3713 1625 
L 3713 1100 
L 3047 1100 
L 3047 0 
L 2419 0 
L 2419 1100 
L 313 1100 
L 313 1709 
L 2253 4666 
z
" transform="scale(0.015625)"/>
       </defs>
       <use xlink:href="#DejaVuSans-34"/>
       <use xlink:href="#DejaVuSans-30" transform="translate(63.623047 0)"/>
       <use xlink:href="#DejaVuSans-30" transform="translate(127.246094 0)"/>
       <use xlink:href="#DejaVuSans-30" transform="translate(190.869141 0)"/>
       <use xlink:href="#DejaVuSans-30" transform="translate(254.492188 0)"/>
       <use xlink:href="#DejaVuSans-30" transform="translate(318.115234 0)"/>
      </g>
     </g>
    </g>
    <g id="xtick_6">
     <g id="line2d_6">
      <g>
       <use xlink:href="#m346df18e95" x="274.415472" y="307.584" style="stroke: #000000; stroke-width: 0.8"/>
      </g>
     </g>
     <g id="text_6">
      <!-- 500000 -->
      <g transform="translate(255.327972 322.182437) scale(0.1 -0.1)">
       <defs>
        <path id="DejaVuSans-35" d="M 691 4666 
L 3169 4666 
L 3169 4134 
L 1269 4134 
L 1269 2991 
Q 1406 3038 1543 3061 
Q 1681 3084 1819 3084 
Q 2600 3084 3056 2656 
Q 3513 2228 3513 1497 
Q 3513 744 3044 326 
Q 2575 -91 1722 -91 
Q 1428 -91 1123 -41 
Q 819 9 494 109 
L 494 744 
Q 775 591 1075 516 
Q 1375 441 1709 441 
Q 2250 441 2565 725 
Q 2881 1009 2881 1497 
Q 2881 1984 2565 2268 
Q 2250 2553 1709 2553 
Q 1456 2553 1204 2497 
Q 953 2441 691 2322 
L 691 4666 
z
" transform="scale(0.015625)"/>
       </defs>
       <use xlink:href="#DejaVuSans-35"/>
       <use xlink:href="#DejaVuSans-30" transform="translate(63.623047 0)"/>
       <use xlink:href="#DejaVuSans-30" transform="translate(127.246094 0)"/>
       <use xlink:href="#DejaVuSans-30" transform="translate(190.869141 0)"/>
       <use xlink:href="#DejaVuSans-30" transform="translate(254.492188 0)"/>
       <use xlink:href="#DejaVuSans-30" transform="translate(318.115234 0)"/>
      </g>
     </g>
    </g>
    <g id="xtick_7">
     <g id="line2d_7">
      <g>
       <use xlink:href="#m346df18e95" x="315.772739" y="307.584" style="stroke: #000000; stroke-width: 0.8"/>
      </g>
     </g>
     <g id="text_7">
      <!-- 600000 -->
      <g transform="translate(296.685239 322.182437) scale(0.1 -0.1)">
       <defs>
        <path id="DejaVuSans-36" d="M 2113 2584 
Q 1688 2584 1439 2293 
Q 1191 2003 1191 1497 
Q 1191 994 1439 701 
Q 1688 409 2113 409 
Q 2538 409 2786 701 
Q 3034 994 3034 1497 
Q 3034 2003 2786 2293 
Q 2538 2584 2113 2584 
z
M 3366 4563 
L 3366 3988 
Q 3128 4100 2886 4159 
Q 2644 4219 2406 4219 
Q 1781 4219 1451 3797 
Q 1122 3375 1075 2522 
Q 1259 2794 1537 2939 
Q 1816 3084 2150 3084 
Q 2853 3084 3261 2657 
Q 3669 2231 3669 1497 
Q 3669 778 3244 343 
Q 2819 -91 2113 -91 
Q 1303 -91 875 529 
Q 447 1150 447 2328 
Q 447 3434 972 4092 
Q 1497 4750 2381 4750 
Q 2619 4750 2861 4703 
Q 3103 4656 3366 4563 
z
" transform="scale(0.015625)"/>
       </defs>
       <use xlink:href="#DejaVuSans-36"/>
       <use xlink:href="#DejaVuSans-30" transform="translate(63.623047 0)"/>
       <use xlink:href="#DejaVuSans-30" transform="translate(127.246094 0)"/>
       <use xlink:href="#DejaVuSans-30" transform="translate(190.869141 0)"/>
       <use xlink:href="#DejaVuSans-30" transform="translate(254.492188 0)"/>
       <use xlink:href="#DejaVuSans-30" transform="translate(318.115234 0)"/>
      </g>
     </g>
    </g>
    <g id="xtick_8">
     <g id="line2d_8">
      <g>
       <use xlink:href="#m346df18e95" x="357.130006" y="307.584" style="stroke: #000000; stroke-width: 0.8"/>
      </g>
     </g>
     <g id="text_8">
      <!-- 700000 -->
      <g transform="translate(338.042506 322.182437) scale(0.1 -0.1)">
       <defs>
        <path id="DejaVuSans-37" d="M 525 4666 
L 3525 4666 
L 3525 4397 
L 1831 0 
L 1172 0 
L 2766 4134 
L 525 4134 
L 525 4666 
z
" transform="scale(0.015625)"/>
       </defs>
       <use xlink:href="#DejaVuSans-37"/>
       <use xlink:href="#DejaVuSans-30" transform="translate(63.623047 0)"/>
       <use xlink:href="#DejaVuSans-30" transform="translate(127.246094 0)"/>
       <use xlink:href="#DejaVuSans-30" transform="translate(190.869141 0)"/>
       <use xlink:href="#DejaVuSans-30" transform="translate(254.492188 0)"/>
       <use xlink:href="#DejaVuSans-30" transform="translate(318.115234 0)"/>
      </g>
     </g>
    </g>
    <g id="xtick_9">
     <g id="line2d_9">
      <g>
       <use xlink:href="#m346df18e95" x="398.487273" y="307.584" style="stroke: #000000; stroke-width: 0.8"/>
      </g>
     </g>
     <g id="text_9">
      <!-- 800000 -->
      <g transform="translate(379.399773 322.182437) scale(0.1 -0.1)">
       <defs>
        <path id="DejaVuSans-38" d="M 2034 2216 
Q 1584 2216 1326 1975 
Q 1069 1734 1069 1313 
Q 1069 891 1326 650 
Q 1584 409 2034 409 
Q 2484 409 2743 651 
Q 3003 894 3003 1313 
Q 3003 1734 2745 1975 
Q 2488 2216 2034 2216 
z
M 1403 2484 
Q 997 2584 770 2862 
Q 544 3141 544 3541 
Q 544 4100 942 4425 
Q 1341 4750 2034 4750 
Q 2731 4750 3128 4425 
Q 3525 4100 3525 3541 
Q 3525 3141 3298 2862 
Q 3072 2584 2669 2484 
Q 3125 2378 3379 2068 
Q 3634 1759 3634 1313 
Q 3634 634 3220 271 
Q 2806 -91 2034 -91 
Q 1263 -91 848 271 
Q 434 634 434 1313 
Q 434 1759 690 2068 
Q 947 2378 1403 2484 
z
M 1172 3481 
Q 1172 3119 1398 2916 
Q 1625 2713 2034 2713 
Q 2441 2713 2670 2916 
Q 2900 3119 2900 3481 
Q 2900 3844 2670 4047 
Q 2441 4250 2034 4250 
Q 1625 4250 1398 4047 
Q 1172 3844 1172 3481 
z
" transform="scale(0.015625)"/>
       </defs>
       <use xlink:href="#DejaVuSans-38"/>
       <use xlink:href="#DejaVuSans-30" transform="translate(63.623047 0)"/>
       <use xlink:href="#DejaVuSans-30" transform="translate(127.246094 0)"/>
       <use xlink:href="#DejaVuSans-30" transform="translate(190.869141 0)"/>
       <use xlink:href="#DejaVuSans-30" transform="translate(254.492188 0)"/>
       <use xlink:href="#DejaVuSans-30" transform="translate(318.115234 0)"/>
      </g>
     </g>
    </g>
    <g id="text_10">
     <!-- Salarios -->
     <g transform="translate(216.36 335.860562) scale(0.1 -0.1)">
      <defs>
       <path id="DejaVuSans-53" d="M 3425 4513 
L 3425 3897 
Q 3066 4069 2747 4153 
Q 2428 4238 2131 4238 
Q 1616 4238 1336 4038 
Q 1056 3838 1056 3469 
Q 1056 3159 1242 3001 
Q 1428 2844 1947 2747 
L 2328 2669 
Q 3034 2534 3370 2195 
Q 3706 1856 3706 1288 
Q 3706 609 3251 259 
Q 2797 -91 1919 -91 
Q 1588 -91 1214 -16 
Q 841 59 441 206 
L 441 856 
Q 825 641 1194 531 
Q 1563 422 1919 422 
Q 2459 422 2753 634 
Q 3047 847 3047 1241 
Q 3047 1584 2836 1778 
Q 2625 1972 2144 2069 
L 1759 2144 
Q 1053 2284 737 2584 
Q 422 2884 422 3419 
Q 422 4038 858 4394 
Q 1294 4750 2059 4750 
Q 2388 4750 2728 4690 
Q 3069 4631 3425 4513 
z
" transform="scale(0.015625)"/>
       <path id="DejaVuSans-61" d="M 2194 1759 
Q 1497 1759 1228 1600 
Q 959 1441 959 1056 
Q 959 750 1161 570 
Q 1363 391 1709 391 
Q 2188 391 2477 730 
Q 2766 1069 2766 1631 
L 2766 1759 
L 2194 1759 
z
M 3341 1997 
L 3341 0 
L 2766 0 
L 2766 531 
Q 2569 213 2275 61 
Q 1981 -91 1556 -91 
Q 1019 -91 701 211 
Q 384 513 384 1019 
Q 384 1609 779 1909 
Q 1175 2209 1959 2209 
L 2766 2209 
L 2766 2266 
Q 2766 2663 2505 2880 
Q 2244 3097 1772 3097 
Q 1472 3097 1187 3025 
Q 903 2953 641 2809 
L 641 3341 
Q 956 3463 1253 3523 
Q 1550 3584 1831 3584 
Q 2591 3584 2966 3190 
Q 3341 2797 3341 1997 
z
" transform="scale(0.015625)"/>
       <path id="DejaVuSans-6c" d="M 603 4863 
L 1178 4863 
L 1178 0 
L 603 0 
L 603 4863 
z
" transform="scale(0.015625)"/>
       <path id="DejaVuSans-72" d="M 2631 2963 
Q 2534 3019 2420 3045 
Q 2306 3072 2169 3072 
Q 1681 3072 1420 2755 
Q 1159 2438 1159 1844 
L 1159 0 
L 581 0 
L 581 3500 
L 1159 3500 
L 1159 2956 
Q 1341 3275 1631 3429 
Q 1922 3584 2338 3584 
Q 2397 3584 2469 3576 
Q 2541 3569 2628 3553 
L 2631 2963 
z
" transform="scale(0.015625)"/>
       <path id="DejaVuSans-69" d="M 603 3500 
L 1178 3500 
L 1178 0 
L 603 0 
L 603 3500 
z
M 603 4863 
L 1178 4863 
L 1178 4134 
L 603 4134 
L 603 4863 
z
" transform="scale(0.015625)"/>
       <path id="DejaVuSans-6f" d="M 1959 3097 
Q 1497 3097 1228 2736 
Q 959 2375 959 1747 
Q 959 1119 1226 758 
Q 1494 397 1959 397 
Q 2419 397 2687 759 
Q 2956 1122 2956 1747 
Q 2956 2369 2687 2733 
Q 2419 3097 1959 3097 
z
M 1959 3584 
Q 2709 3584 3137 3096 
Q 3566 2609 3566 1747 
Q 3566 888 3137 398 
Q 2709 -91 1959 -91 
Q 1206 -91 779 398 
Q 353 888 353 1747 
Q 353 2609 779 3096 
Q 1206 3584 1959 3584 
z
" transform="scale(0.015625)"/>
       <path id="DejaVuSans-73" d="M 2834 3397 
L 2834 2853 
Q 2591 2978 2328 3040 
Q 2066 3103 1784 3103 
Q 1356 3103 1142 2972 
Q 928 2841 928 2578 
Q 928 2378 1081 2264 
Q 1234 2150 1697 2047 
L 1894 2003 
Q 2506 1872 2764 1633 
Q 3022 1394 3022 966 
Q 3022 478 2636 193 
Q 2250 -91 1575 -91 
Q 1294 -91 989 -36 
Q 684 19 347 128 
L 347 722 
Q 666 556 975 473 
Q 1284 391 1588 391 
Q 1994 391 2212 530 
Q 2431 669 2431 922 
Q 2431 1156 2273 1281 
Q 2116 1406 1581 1522 
L 1381 1569 
Q 847 1681 609 1914 
Q 372 2147 372 2553 
Q 372 3047 722 3315 
Q 1072 3584 1716 3584 
Q 2034 3584 2315 3537 
Q 2597 3491 2834 3397 
z
" transform="scale(0.015625)"/>
      </defs>
      <use xlink:href="#DejaVuSans-53"/>
      <use xlink:href="#DejaVuSans-61" transform="translate(63.476562 0)"/>
      <use xlink:href="#DejaVuSans-6c" transform="translate(124.755859 0)"/>
      <use xlink:href="#DejaVuSans-61" transform="translate(152.539062 0)"/>
      <use xlink:href="#DejaVuSans-72" transform="translate(213.818359 0)"/>
      <use xlink:href="#DejaVuSans-69" transform="translate(254.931641 0)"/>
      <use xlink:href="#DejaVuSans-6f" transform="translate(282.714844 0)"/>
      <use xlink:href="#DejaVuSans-73" transform="translate(343.896484 0)"/>
     </g>
    </g>
   </g>
   <g id="matplotlib.axis_2">
    <g id="ytick_1">
     <g id="line2d_10">
      <defs>
       <path id="m2092a255c5" d="M 0 0 
L -3.5 0 
" style="stroke: #000000; stroke-width: 0.8"/>
      </defs>
      <g>
       <use xlink:href="#m2092a255c5" x="57.6" y="307.584" style="stroke: #000000; stroke-width: 0.8"/>
      </g>
     </g>
     <g id="text_11">
      <!-- 0 -->
      <g transform="translate(44.2375 311.383219) scale(0.1 -0.1)">
       <use xlink:href="#DejaVuSans-30"/>
      </g>
     </g>
    </g>
    <g id="ytick_2">
     <g id="line2d_11">
      <g>
       <use xlink:href="#m2092a255c5" x="57.6" y="260.650667" style="stroke: #000000; stroke-width: 0.8"/>
      </g>
     </g>
     <g id="text_12">
      <!-- 200 -->
      <g transform="translate(31.5125 264.449885) scale(0.1 -0.1)">
       <use xlink:href="#DejaVuSans-32"/>
       <use xlink:href="#DejaVuSans-30" transform="translate(63.623047 0)"/>
       <use xlink:href="#DejaVuSans-30" transform="translate(127.246094 0)"/>
      </g>
     </g>
    </g>
    <g id="ytick_3">
     <g id="line2d_12">
      <g>
       <use xlink:href="#m2092a255c5" x="57.6" y="213.717333" style="stroke: #000000; stroke-width: 0.8"/>
      </g>
     </g>
     <g id="text_13">
      <!-- 400 -->
      <g transform="translate(31.5125 217.516552) scale(0.1 -0.1)">
       <use xlink:href="#DejaVuSans-34"/>
       <use xlink:href="#DejaVuSans-30" transform="translate(63.623047 0)"/>
       <use xlink:href="#DejaVuSans-30" transform="translate(127.246094 0)"/>
      </g>
     </g>
    </g>
    <g id="ytick_4">
     <g id="line2d_13">
      <g>
       <use xlink:href="#m2092a255c5" x="57.6" y="166.784" style="stroke: #000000; stroke-width: 0.8"/>
      </g>
     </g>
     <g id="text_14">
      <!-- 600 -->
      <g transform="translate(31.5125 170.583219) scale(0.1 -0.1)">
       <use xlink:href="#DejaVuSans-36"/>
       <use xlink:href="#DejaVuSans-30" transform="translate(63.623047 0)"/>
       <use xlink:href="#DejaVuSans-30" transform="translate(127.246094 0)"/>
      </g>
     </g>
    </g>
    <g id="ytick_5">
     <g id="line2d_14">
      <g>
       <use xlink:href="#m2092a255c5" x="57.6" y="119.850667" style="stroke: #000000; stroke-width: 0.8"/>
      </g>
     </g>
     <g id="text_15">
      <!-- 800 -->
      <g transform="translate(31.5125 123.649885) scale(0.1 -0.1)">
       <use xlink:href="#DejaVuSans-38"/>
       <use xlink:href="#DejaVuSans-30" transform="translate(63.623047 0)"/>
       <use xlink:href="#DejaVuSans-30" transform="translate(127.246094 0)"/>
      </g>
     </g>
    </g>
    <g id="ytick_6">
     <g id="line2d_15">
      <g>
       <use xlink:href="#m2092a255c5" x="57.6" y="72.917333" style="stroke: #000000; stroke-width: 0.8"/>
      </g>
     </g>
     <g id="text_16">
      <!-- 1000 -->
      <g transform="translate(25.15 76.716552) scale(0.1 -0.1)">
       <use xlink:href="#DejaVuSans-31"/>
       <use xlink:href="#DejaVuSans-30" transform="translate(63.623047 0)"/>
       <use xlink:href="#DejaVuSans-30" transform="translate(127.246094 0)"/>
       <use xlink:href="#DejaVuSans-30" transform="translate(190.869141 0)"/>
      </g>
     </g>
    </g>
    <g id="text_17">
     <!-- Frecuencia -->
     <g transform="translate(19.070312 201.426437) rotate(-90) scale(0.1 -0.1)">
      <defs>
       <path id="DejaVuSans-46" d="M 628 4666 
L 3309 4666 
L 3309 4134 
L 1259 4134 
L 1259 2759 
L 3109 2759 
L 3109 2228 
L 1259 2228 
L 1259 0 
L 628 0 
L 628 4666 
z
" transform="scale(0.015625)"/>
       <path id="DejaVuSans-65" d="M 3597 1894 
L 3597 1613 
L 953 1613 
Q 991 1019 1311 708 
Q 1631 397 2203 397 
Q 2534 397 2845 478 
Q 3156 559 3463 722 
L 3463 178 
Q 3153 47 2828 -22 
Q 2503 -91 2169 -91 
Q 1331 -91 842 396 
Q 353 884 353 1716 
Q 353 2575 817 3079 
Q 1281 3584 2069 3584 
Q 2775 3584 3186 3129 
Q 3597 2675 3597 1894 
z
M 3022 2063 
Q 3016 2534 2758 2815 
Q 2500 3097 2075 3097 
Q 1594 3097 1305 2825 
Q 1016 2553 972 2059 
L 3022 2063 
z
" transform="scale(0.015625)"/>
       <path id="DejaVuSans-63" d="M 3122 3366 
L 3122 2828 
Q 2878 2963 2633 3030 
Q 2388 3097 2138 3097 
Q 1578 3097 1268 2742 
Q 959 2388 959 1747 
Q 959 1106 1268 751 
Q 1578 397 2138 397 
Q 2388 397 2633 464 
Q 2878 531 3122 666 
L 3122 134 
Q 2881 22 2623 -34 
Q 2366 -91 2075 -91 
Q 1284 -91 818 406 
Q 353 903 353 1747 
Q 353 2603 823 3093 
Q 1294 3584 2113 3584 
Q 2378 3584 2631 3529 
Q 2884 3475 3122 3366 
z
" transform="scale(0.015625)"/>
       <path id="DejaVuSans-75" d="M 544 1381 
L 544 3500 
L 1119 3500 
L 1119 1403 
Q 1119 906 1312 657 
Q 1506 409 1894 409 
Q 2359 409 2629 706 
Q 2900 1003 2900 1516 
L 2900 3500 
L 3475 3500 
L 3475 0 
L 2900 0 
L 2900 538 
Q 2691 219 2414 64 
Q 2138 -91 1772 -91 
Q 1169 -91 856 284 
Q 544 659 544 1381 
z
M 1991 3584 
L 1991 3584 
z
" transform="scale(0.015625)"/>
       <path id="DejaVuSans-6e" d="M 3513 2113 
L 3513 0 
L 2938 0 
L 2938 2094 
Q 2938 2591 2744 2837 
Q 2550 3084 2163 3084 
Q 1697 3084 1428 2787 
Q 1159 2491 1159 1978 
L 1159 0 
L 581 0 
L 581 3500 
L 1159 3500 
L 1159 2956 
Q 1366 3272 1645 3428 
Q 1925 3584 2291 3584 
Q 2894 3584 3203 3211 
Q 3513 2838 3513 2113 
z
" transform="scale(0.015625)"/>
      </defs>
      <use xlink:href="#DejaVuSans-46"/>
      <use xlink:href="#DejaVuSans-72" transform="translate(50.269531 0)"/>
      <use xlink:href="#DejaVuSans-65" transform="translate(89.132812 0)"/>
      <use xlink:href="#DejaVuSans-63" transform="translate(150.65625 0)"/>
      <use xlink:href="#DejaVuSans-75" transform="translate(205.636719 0)"/>
      <use xlink:href="#DejaVuSans-65" transform="translate(269.015625 0)"/>
      <use xlink:href="#DejaVuSans-6e" transform="translate(330.539062 0)"/>
      <use xlink:href="#DejaVuSans-63" transform="translate(393.917969 0)"/>
      <use xlink:href="#DejaVuSans-69" transform="translate(448.898438 0)"/>
      <use xlink:href="#DejaVuSans-61" transform="translate(476.681641 0)"/>
     </g>
    </g>
   </g>
   <g id="line2d_16">
    <path d="M 73.832727 291.47242 
L 75.464157 284.547308 
L 77.095587 276.218075 
L 78.727017 266.354214 
L 80.358447 254.790237 
L 81.989877 241.46775 
L 83.621307 226.54874 
L 86.884166 193.632883 
L 90.147026 160.322188 
L 91.778456 144.751339 
L 93.409886 130.286116 
L 95.041316 117.005896 
L 96.672746 104.917257 
L 98.304175 94.084037 
L 99.935605 84.694892 
L 101.567035 77.0092 
L 103.198465 71.215246 
L 104.829895 67.289953 
L 106.461325 64.940467 
L 108.092755 63.670705 
L 109.724185 62.967775 
L 111.355614 62.528925 
L 112.987044 62.381404 
L 114.618474 62.781829 
L 116.249904 63.94702 
L 117.881334 65.830551 
L 121.144194 70.615545 
L 122.775624 73.269915 
L 124.407053 76.464994 
L 126.038483 80.627194 
L 127.669913 85.873226 
L 130.932773 97.772464 
L 132.564203 103.077624 
L 134.195633 107.518516 
L 137.458492 115.336631 
L 139.089922 120.047258 
L 140.721352 125.939311 
L 142.352782 132.976763 
L 147.247072 155.882484 
L 150.509931 169.012611 
L 160.298511 206.017605 
L 161.929941 211.420741 
L 163.56137 216.118898 
L 165.1928 220.15106 
L 170.08709 231.047924 
L 171.71852 235.183277 
L 176.61281 248.583674 
L 178.244239 252.407283 
L 179.875669 255.514291 
L 181.507099 257.938941 
L 186.401389 264.099187 
L 188.032819 266.66663 
L 192.927108 275.112089 
L 194.558538 277.633517 
L 196.189968 279.917401 
L 197.821398 281.988427 
L 199.452828 283.859959 
L 201.084258 285.519677 
L 202.715688 286.961441 
L 210.872837 293.191482 
L 212.504267 294.336865 
L 214.135697 295.295985 
L 217.398556 296.745761 
L 222.292846 298.686089 
L 228.818566 301.444856 
L 230.449995 301.896597 
L 232.081425 302.172788 
L 240.238575 302.975963 
L 248.395724 304.78775 
L 253.290014 305.427165 
L 256.552873 305.643978 
L 261.447163 305.900843 
L 266.341453 306.283559 
L 269.604312 306.125215 
L 272.867172 305.777951 
L 274.498602 305.713457 
L 276.130032 305.782827 
L 284.287181 306.590891 
L 289.181471 306.787758 
L 294.075761 306.972985 
L 300.60148 306.954274 
L 307.1272 307.194978 
L 310.390059 306.841451 
L 313.652919 306.272568 
L 315.284349 306.113847 
L 316.915779 306.118236 
L 320.178639 306.479669 
L 323.441498 306.821713 
L 329.967218 307.026086 
L 343.018657 307.53656 
L 351.175806 307.409769 
L 359.332956 307.135924 
L 364.227245 306.81164 
L 367.490105 306.874735 
L 372.384395 307.21213 
L 396.855843 307.466978 
L 398.487273 307.475735 
L 398.487273 307.475735 
" clip-path="url(#p0c5a910bc1)" style="fill: none; stroke: #1f77b4; stroke-width: 1.5; stroke-linecap: square"/>
   </g>
   <g id="patch_124">
    <path d="M 57.6 307.584 
L 57.6 41.472 
" style="fill: none; stroke: #000000; stroke-width: 0.8; stroke-linejoin: miter; stroke-linecap: square"/>
   </g>
   <g id="patch_125">
    <path d="M 414.72 307.584 
L 414.72 41.472 
" style="fill: none; stroke: #000000; stroke-width: 0.8; stroke-linejoin: miter; stroke-linecap: square"/>
   </g>
   <g id="patch_126">
    <path d="M 57.6 307.584 
L 414.72 307.584 
" style="fill: none; stroke: #000000; stroke-width: 0.8; stroke-linejoin: miter; stroke-linecap: square"/>
   </g>
   <g id="patch_127">
    <path d="M 57.6 41.472 
L 414.72 41.472 
" style="fill: none; stroke: #000000; stroke-width: 0.8; stroke-linejoin: miter; stroke-linecap: square"/>
   </g>
  </g>
 </g>
 <defs>
  <clipPath id="p0c5a910bc1">
   <rect x="57.6" y="41.472" width="357.12" height="266.112"/>
  </clipPath>
 </defs>
</svg>
